<?xml version="1.0" encoding="utf-8"?>
<!-- Generator: Adobe Illustrator 17.0.0, SVG Export Plug-In . SVG Version: 6.00 Build 0)  -->
<!DOCTYPE svg PUBLIC "-//W3C//DTD SVG 1.1//EN" "http://www.w3.org/Graphics/SVG/1.1/DTD/svg11.dtd">
<svg version="1.1" id="Layer_1" xmlns="http://www.w3.org/2000/svg" xmlns:xlink="http://www.w3.org/1999/xlink" x="0px" y="0px"
     width="21px" height="21px" viewBox="0 0 21 21" enable-background="new 0 0 21 21" xml:space="preserve">
<g>
    <polygon fill="#232b2d" points="9.793,11.207 6.964,8.379 5.55,9.793 9.793,14.036 11.207,12.621 15.45,8.379 14.036,6.964     "/>
    <path fill="#232b2d" d="M10.5,0C4.71,0,0,4.71,0,10.5S4.71,21,10.5,21S21,16.29,21,10.5S16.29,0,10.5,0z M10.5,20.045
        c-5.263,0-9.545-4.282-9.545-9.545c0-5.264,4.282-9.545,9.545-9.545c5.263,0,9.545,4.282,9.545,9.545
        C20.045,15.763,15.763,20.045,10.5,20.045z"/>
</g>
</svg>