<?xml version="1.0" encoding="utf-8"?>
<!-- Generator: Adobe Illustrator 17.0.0, SVG Export Plug-In . SVG Version: 6.00 Build 0)  -->
<!DOCTYPE svg PUBLIC "-//W3C//DTD SVG 1.1//EN" "http://www.w3.org/Graphics/SVG/1.1/DTD/svg11.dtd">
<svg version="1.1" id="Layer_1" xmlns="http://www.w3.org/2000/svg" xmlns:xlink="http://www.w3.org/1999/xlink" x="0px" y="0px"
	 width="28px" height="44px" viewBox="0 0 28 44" enable-background="new 0 0 28 44" xml:space="preserve">
<g>
	<path fill="#918435" d="M26.485,20.223l-12.568-3.699v-5.74c0-1.27-0.676-2.381-1.684-3.004C12.34,7.646,12.4,7.451,12.4,7.164
		c0-1.127-0.913-2.04-2.04-2.04c-1.127,0-2.04,0.913-2.04,2.04c0,0.304,0.071,0.501,0.19,0.635
		c-0.992,0.626-1.654,1.728-1.654,2.985v11.741H6.855c-2.659,0-4.823,2.163-4.823,4.823v7.344c0,0.017,0.004,0.032,0.005,0.049
		c0.002,0.031,0.004,0.061,0.009,0.092c0.005,0.028,0.011,0.055,0.018,0.082c0.007,0.028,0.016,0.055,0.026,0.082
		c0.01,0.028,0.022,0.054,0.035,0.08c0.012,0.025,0.025,0.049,0.039,0.073c0.016,0.026,0.034,0.051,0.053,0.076
		c0.01,0.013,0.017,0.028,0.028,0.041l4.346,5.054v2.8c0,0.486,0.394,0.88,0.88,0.88s0.88-0.394,0.88-0.88v-3.126
		c0-0.211-0.076-0.414-0.213-0.574l-4.346-5.054v-7.018c0-1.689,1.374-3.063,3.063-3.063h0.001v3.853c0,0.486,0.394,0.88,0.88,0.88
		s0.88-0.394,0.88-0.88V10.784c0-0.976,0.794-1.771,1.771-1.771s1.77,0.794,1.77,1.771v12.621c0,0.486,0.394,0.88,0.88,0.88
		c0.486,0,0.88-0.394,0.88-0.88v-5.046l2.64,0.777v5.563c0,0.486,0.394,0.88,0.88,0.88c0.486,0,0.88-0.394,0.88-0.88v-5.045
		l2.639,0.777v5.562c0,0.486,0.394,0.88,0.88,0.88c0.486,0,0.88-0.394,0.88-0.88v-5.044l2.64,0.777v12.702l-3.353,5.081
		c-0.095,0.144-0.146,0.312-0.146,0.485v3.126c0,0.486,0.394,0.88,0.88,0.88c0.486,0,0.88-0.394,0.88-0.88v-2.862l3.353-5.081
		c0.095-0.144,0.146-0.312,0.146-0.485V21.068C27.116,20.677,26.859,20.334,26.485,20.223z"/>
	<path fill="#918435" d="M10.422,1.76c4.776,0,8.662,3.886,8.662,8.662v2.717c0,0.486,0.394,0.88,0.88,0.88
		c0.486,0,0.88-0.394,0.88-0.88v-2.717C20.843,4.675,16.168,0,10.422,0S0,4.675,0,10.422v3.399c0,0.486,0.394,0.88,0.88,0.88
		s0.88-0.394,0.88-0.88v-3.399C1.76,5.646,5.646,1.76,10.422,1.76z"/>
</g>
</svg>
