<?xml version="1.0" encoding="UTF-8"?><svg xmlns="http://www.w3.org/2000/svg" xmlns:xlink="http://www.w3.org/1999/xlink" height="239" viewBox="0 0 257 239" width="257"><svg height="45" viewBox="0 0 87 45" width="87" x="1" y="1"><path fill="#232B2D" d="M7.028 21.112c.005 5.47 4.364 9.912 9.748 9.912.62 0 1.22-.063 1.808-.175 1.398-.27 2.314-1.626 2.055-3.055-.26-1.417-1.6-2.353-3.006-2.09-.274.06-.56.092-.858.092-2.542-.008-4.6-2.1-4.602-4.686.002-2.587 2.06-4.684 4.602-4.698 2.548.013 4.607 2.11 4.615 4.7v7.295c0 1.44 1.15 2.614 2.57 2.614 1.417 0 2.566-1.17 2.566-2.613V21.11c0-5.476-4.36-9.922-9.75-9.922-5.384.002-9.742 4.448-9.748 9.924M48.938 21.112c0 5.47 4.357 9.912 9.745 9.912.614 0 1.224-.063 1.813-.175 1.387-.27 2.306-1.64 2.048-3.055-.265-1.417-1.603-2.353-3.004-2.09-.28.06-.552.092-.857.092-2.544-.008-4.603-2.1-4.608-4.686.006-2.587 2.064-4.68 4.608-4.698 2.544.017 4.598 2.11 4.61 4.7v7.284c0 1.45 1.146 2.626 2.57 2.626 1.423 0 2.57-1.176 2.57-2.626V21.11c0-5.476-4.357-9.92-9.75-9.922-5.388.006-9.745 4.448-9.745 9.924M27.982 21.106c0 5.474 4.36 9.912 9.756 9.917 5.385-.006 9.737-4.442 9.748-9.917-.01-5.48-4.363-9.917-9.748-9.917-.626 0-1.22.057-1.822.17-1.387.27-2.31 1.635-2.042 3.056.256 1.424 1.603 2.357 3 2.093.275-.06.558-.085.864-.085 2.534.003 4.6 2.1 4.605 4.683-.005 2.586-2.07 4.675-4.605 4.683-2.55-.007-4.61-2.096-4.615-4.682V4.248c0-1.445-1.148-2.62-2.578-2.62-1.416 0-2.564 1.175-2.564 2.62l.002 16.858M0 28.408c0 1.44 1.156 2.618 2.576 2.618S5.14 29.85 5.14 28.408V4.286c0-1.45-1.144-2.626-2.564-2.626C1.156 1.66 0 2.837 0 4.286v24.122M83.382 17.71c-.32-.212-.83-.45-1.476-.725-1.88-.835-4.555-1.635-5.32-2.195-.4-.297-.563-.612-.64-.972-.004-.03-.004-.048-.012-.078 0-.023-.004-.05-.01-.073-.256-1.433-1.485-2.497-2.967-2.497-1.337 0-2.464.86-2.86 2.087-.08.255-.126.513-.147.79v.058c-.076.994.073 3.883 4.576 5.58l3.46 1.366c1.877.685 2.577 1.54 2.65 2.526-.007.575-.187.964-.567 1.324-.387.356-1.05.68-2.14.68-1.296-.008-1.92-.348-2.3-.743-.38-.392-.716-1.04-.738-2.333-.06-1.44-1.235-2.596-2.677-2.596-1.29 0-2.355.932-2.615 2.164 0 0-.054.306-.054.56v.156c.072 2.216.782 4.327 2.263 5.86 1.55 1.62 3.765 2.377 6.047 2.377h.073c2.203 0 4.236-.726 5.715-2.08 1.35-1.225 2.177-2.972 2.312-4.806.042-.403.062-.824.062-1.294-.016-2.255-.883-3.962-2.638-5.136M83.35 10.452c-1.463 0-2.656 1.214-2.656 2.706 0 1.485 1.193 2.692 2.656 2.692 1.46 0 2.658-1.208 2.658-2.692 0-1.492-1.197-2.706-2.658-2.706"/><path fill="#FFF" d="M83.357 14.485c-.725 0-1.315-.6-1.315-1.33 0-.736.59-1.333 1.315-1.333.713 0 1.297.598 1.297 1.334.002.73-.582 1.33-1.297 1.33"/><g fill="#232B2D"><path d="M.328 35.006c.094 0 .172.032.234.094.062.063.094.145.094.244v2.478c0 .062.018.07.056.018.163-.256.397-.457.704-.6.307-.145.62-.216.94-.216.325 0 .632.066.92.197.287.13.537.313.75.54.213.23.382.497.507.805.125.308.187.633.187.977s-.062.668-.187.972-.293.57-.506.8c-.213.227-.463.407-.75.54s-.596.196-.92.196c-.32 0-.634-.072-.94-.216-.307-.144-.542-.344-.704-.6-.038-.05-.056-.045-.056.018l.012.427c0 .1-.032.18-.09.243-.06.062-.136.094-.23.094-.1 0-.18-.032-.244-.094-.062-.063-.094-.144-.094-.244L0 35.345c0-.1.032-.18.094-.244.062-.066.14-.096.234-.096zm2.028 6.383c.23 0 .45-.05.657-.147.207-.097.388-.228.545-.394s.28-.363.37-.59.137-.465.137-.722c0-.263-.046-.506-.136-.73-.092-.227-.216-.422-.372-.59-.156-.166-.338-.296-.545-.393-.207-.098-.426-.146-.657-.146-.23 0-.45.047-.657.145-.208.097-.388.228-.54.394s-.276.36-.367.587c-.09.225-.135.47-.135.73 0 .258.045.5.135.724.09.225.213.422.366.59.153.166.332.296.54.393.205.098.424.146.656.146zM10.548 39.442c0 .093-.03.172-.093.238s-.143.097-.243.097h-3.75c-.038 0-.05.016-.038.047.03.22.1.422.206.612.105.19.238.353.397.49s.342.244.55.322c.21.08.432.116.67.116.33 0 .596-.048.802-.145.205-.097.38-.2.52-.314.076-.062.15-.09.225-.083.075.006.143.033.206.083.05.045.082.108.094.19.012.085-.006.16-.056.22-.15.175-.377.335-.68.482-.307.145-.677.218-1.113.218-.354 0-.684-.066-.99-.195-.304-.13-.568-.31-.792-.536-.224-.228-.4-.492-.527-.794-.128-.302-.19-.625-.19-.966s.06-.665.185-.97c.126-.307.297-.572.514-.8.218-.228.473-.406.765-.537.292-.13.605-.195.942-.195.324 0 .632.06.923.177.293.116.548.28.765.484.218.205.39.446.518.723.128.277.19.57.19.883v.152zm-.737-.32c.038 0 .054-.017.048-.055-.05-.2-.13-.384-.238-.555s-.238-.32-.388-.443-.316-.222-.5-.29c-.182-.07-.378-.103-.583-.103-.207 0-.4.034-.585.102-.183.068-.35.164-.5.29s-.277.27-.387.442-.188.355-.238.555c-.012.037.003.056.047.056H9.81zM49.168 35.782c0 .1-.03.183-.095.246-.063.064-.142.096-.236.096s-.174-.032-.236-.096c-.063-.063-.094-.145-.094-.246v-.436c0-.1.03-.183.095-.247.064-.064.143-.096.237-.096s.174.032.236.095c.064.063.095.145.095.246v.436zm0 5.892c0 .102-.03.183-.095.247-.063.064-.142.096-.236.096s-.174-.032-.236-.095c-.063-.063-.094-.144-.094-.246V37.48c0-.103.03-.185.095-.248.064-.063.143-.095.237-.095s.174.032.236.095c.064.063.095.145.095.247v4.194zM51.323 37.74c0 .025.004.038.014.04.01.005.02-.003.033-.022.044-.068.11-.145.202-.23s.2-.165.324-.24.265-.138.418-.19c.153-.05.318-.073.494-.073.27 0 .514.05.734.155.22.103.405.243.56.418s.27.383.352.62c.08.24.12.492.12.762v2.64c0 .102-.03.183-.093.246-.06.062-.143.094-.243.094-.095 0-.17-.032-.23-.094-.06-.063-.09-.144-.09-.245v-2.64c0-.183-.03-.35-.09-.508-.06-.157-.14-.295-.245-.414-.103-.118-.23-.21-.38-.277s-.314-.097-.49-.097c-.182 0-.356.033-.522.098-.165.067-.313.16-.442.278s-.232.257-.31.414c-.08.157-.117.326-.117.508v2.64c0 .102-.03.183-.093.246-.063.062-.145.094-.245.094-.094 0-.17-.032-.23-.094-.06-.063-.09-.144-.09-.245v-4.163c0-.1.032-.183.094-.245s.144-.094.244-.094c.094 0 .17.032.23.094s.09.144.09.245c.003 0 .003.282.003.282zM56.956 37.892c-.032 0-.046.015-.046.046v2.815c0 .074.004.146.013.216.01.07.028.132.055.184.028.052.065.093.11.124.047.03.11.04.19.028.123-.012.218.01.286.065.067.057.104.14.11.25.006.13-.044.224-.152.286-.108.063-.238.094-.392.094-.11 0-.218-.015-.322-.046-.103-.03-.197-.08-.277-.152s-.144-.166-.193-.286c-.05-.12-.074-.272-.074-.457v-3.12c0-.032-.015-.047-.046-.047h-.563c-.098 0-.178-.03-.24-.092-.06-.06-.092-.138-.092-.23s.03-.17.092-.23.142-.092.24-.092h.563c.03 0 .046-.016.046-.046v-.877c0-.104.032-.184.097-.24.065-.055.14-.082.226-.082.085 0 .16.027.225.083.066.055.1.135.1.24v.874c0 .03.013.046.045.046h.544c.098 0 .178.03.24.092s.09.138.09.23-.03.17-.09.23c-.062.062-.142.093-.24.093 0 .002-.544.002-.544.002zM63.225 39.457c0 .094-.032.173-.094.24-.062.065-.144.097-.243.097h-3.773c-.04 0-.05.016-.04.047.033.22.1.426.208.616.107.19.24.355.4.493.16.137.342.244.552.323.21.08.434.117.673.117.33 0 .6-.048.807-.146.207-.097.382-.202.526-.315.075-.063.15-.092.226-.085.074.006.143.034.206.084.05.044.08.108.094.192.012.085-.006.16-.056.22-.15.176-.378.337-.685.485-.307.147-.678.22-1.116.22-.357 0-.69-.066-.997-.197-.306-.13-.572-.312-.797-.54-.226-.23-.403-.495-.532-.8-.128-.303-.19-.627-.19-.97 0-.344.06-.67.186-.978s.297-.574.516-.804c.22-.228.476-.408.77-.54.294-.13.61-.197.948-.197.326 0 .635.06.93.18.292.117.55.28.77.487.217.207.39.45.52.727.127.28.192.574.192.888v.155zm-.74-.32c.037 0 .052-.02.046-.057-.05-.2-.13-.386-.238-.558-.11-.172-.24-.32-.39-.446-.15-.125-.318-.222-.5-.29-.186-.07-.382-.104-.59-.104-.207 0-.402.035-.587.103-.185.07-.352.166-.503.29-.15.126-.28.275-.39.447s-.188.358-.238.558c-.013.038.003.056.047.056h3.344zM65.056 37.925c0 .044.01.072.028.085s.047-.006.086-.056c.088-.106.183-.213.29-.32.107-.106.222-.202.347-.285.125-.086.26-.157.403-.213.145-.056.297-.094.46-.112.118-.013.22.004.3.05.08.048.122.13.122.25 0 .1-.032.176-.095.226-.062.05-.147.092-.253.123-.37.1-.665.214-.888.342s-.393.26-.512.394c-.118.133-.197.27-.234.407-.037.138-.056.266-.056.385v2.413c0 .1-.032.18-.095.244-.062.06-.142.093-.235.093-.094 0-.17-.032-.234-.094-.062-.064-.093-.145-.093-.245v-4.16c0-.1.03-.18.094-.243.064-.06.142-.094.235-.094.094 0 .173.032.234.094.062.062.094.14.094.234l.002.48zM68.582 37.763c0 .026.005.04.013.042.01.004.02-.004.034-.024.043-.068.11-.145.202-.23s.2-.166.327-.24c.125-.077.265-.14.42-.19.155-.05.32-.076.497-.076.27 0 .517.05.74.156.22.104.408.245.562.42s.272.386.355.626c.082.24.123.495.123.768v2.66c0 .102-.033.183-.095.247-.064.064-.146.096-.247.096-.095 0-.173-.032-.232-.095-.06-.063-.09-.144-.09-.246v-2.66c0-.184-.03-.354-.088-.512-.062-.158-.144-.297-.247-.417-.106-.12-.233-.213-.385-.28-.152-.067-.315-.1-.492-.1-.184 0-.36.034-.525.1-.17.067-.317.16-.446.28s-.233.26-.312.417c-.08.158-.118.33-.118.512v2.66c0 .102-.032.183-.096.247-.062.064-.144.096-.246.096-.095 0-.172-.032-.23-.095-.062-.063-.09-.144-.09-.246V37.48c0-.103.03-.185.094-.248.064-.062.145-.095.247-.095.096 0 .173.032.233.095.06.063.09.145.09.247v.283zM77.74 39.457c0 .094-.034.173-.095.24-.063.065-.145.097-.244.097h-3.774c-.037 0-.05.016-.037.047.03.22.1.426.205.616.108.19.24.355.4.493.16.137.343.244.553.323.21.078.434.117.673.117.33 0 .6-.048.808-.146.206-.097.38-.202.526-.315.075-.063.15-.092.224-.085.075.006.145.034.208.084.05.044.08.108.094.192.012.085-.006.16-.057.22-.15.176-.38.337-.684.485-.31.147-.68.22-1.117.22-.36 0-.69-.066-.996-.197-.306-.13-.572-.312-.8-.54-.223-.23-.4-.495-.53-.8-.127-.303-.19-.627-.19-.97 0-.344.06-.67.187-.978.124-.307.297-.574.515-.804.22-.228.476-.408.77-.54.292-.13.61-.197.946-.197.327 0 .636.06.932.18.293.117.55.28.77.487.218.207.39.45.52.727.127.28.193.574.193.888v.155zm-.743-.32c.037 0 .053-.02.047-.057-.05-.2-.13-.386-.24-.558-.11-.172-.24-.32-.39-.446s-.317-.222-.502-.29c-.183-.07-.38-.104-.588-.104-.206 0-.4.035-.588.103-.183.07-.35.166-.5.29s-.283.275-.39.447c-.11.172-.19.358-.24.558-.012.038.004.056.047.056h3.344zM79.892 37.862c-.03 0-.046.015-.046.046v2.82c0 .075.004.148.014.218.008.07.028.133.054.186.028.052.066.093.112.124.046.03.108.04.19.028.123-.012.218.01.286.065s.104.14.11.25c.006.128-.044.224-.153.286-.107.06-.24.092-.394.092-.11 0-.22-.015-.323-.046-.103-.03-.197-.08-.278-.153-.08-.072-.145-.168-.195-.288-.048-.12-.074-.273-.074-.458v-3.127c0-.03-.014-.046-.046-.046h-.564c-.098 0-.18-.03-.24-.09-.06-.063-.093-.14-.093-.233s.032-.17.092-.23c.062-.062.143-.093.24-.093h.565c.032 0 .046-.016.046-.046v-.88c0-.103.032-.184.098-.24.065-.055.14-.082.227-.082s.162.027.228.083c.065.054.096.134.096.24v.878c0 .03.016.046.046.046h.546c.098 0 .18.03.24.092.06.06.093.14.093.23s-.033.17-.093.233c-.062.06-.143.09-.24.09.003.002-.545.002-.545.002zM86 39.54c0 .35-.063.677-.187.98-.126.305-.295.568-.507.793-.214.225-.462.404-.752.536-.287.13-.595.196-.92.196-.326 0-.633-.066-.92-.197-.288-.13-.538-.312-.752-.537-.212-.225-.38-.49-.5-.792-.123-.303-.184-.63-.184-.98 0-.344.06-.67.183-.978.123-.307.29-.574.502-.804.214-.228.464-.408.752-.54.287-.13.595-.197.92-.197.325 0 .633.067.92.198.29.13.538.312.752.54.212.228.38.496.507.804.124.308.187.635.187.977zm-.658 0c0-.257-.045-.498-.134-.723-.092-.225-.216-.423-.37-.592-.158-.17-.34-.3-.547-.398-.205-.098-.425-.146-.655-.146-.232 0-.452.05-.658.147-.206.097-.387.23-.54.398s-.275.367-.367.592c-.09.225-.134.466-.134.722 0 .256.045.498.134.722.092.225.214.42.367.588.154.167.334.297.54.394.206.098.426.146.658.146.23 0 .45-.048.656-.146.21-.097.39-.228.547-.394.155-.166.28-.362.37-.588.09-.225.135-.466.135-.723z"/><g><path d="M15.712 37.706c0-.167.054-.305.164-.418.108-.11.247-.168.413-.168.166 0 .303.056.412.168.108.113.164.25.164.418v3.89c0 .417-.074.776-.22 1.076-.148.3-.34.548-.572.744-.233.195-.498.34-.793.432s-.588.14-.883.14c-.205 0-.423-.017-.653-.05s-.42-.08-.567-.143c-.192-.083-.324-.185-.398-.307-.075-.122-.09-.256-.045-.403.057-.185.15-.313.278-.38.128-.067.263-.074.403-.023.102.03.235.066.4.1.163.035.355.053.58.053.383 0 .7-.094.945-.283.248-.19.37-.455.37-.8V41.5c0-.064-.018-.07-.056-.02-.04.078-.1.157-.182.236-.083.08-.182.153-.298.22s-.247.122-.394.164-.307.063-.48.063c-.358 0-.69-.063-.99-.188-.3-.124-.56-.3-.777-.527-.218-.227-.388-.5-.508-.817-.122-.316-.182-.663-.182-1.042 0-.378.06-.723.182-1.037s.292-.584.508-.81c.218-.228.477-.404.778-.53.302-.123.63-.186.99-.186.173 0 .334.02.486.063.15.042.284.094.403.158.118.064.22.138.302.22.083.083.14.164.173.24.013.027.024.037.034.034.006-.004.012-.015.012-.034zm-1.315 3.303c.218 0 .416-.037.595-.112.18-.073.333-.173.46-.297.13-.124.228-.273.3-.446s.104-.362.104-.567c0-.198-.035-.383-.105-.556s-.17-.32-.297-.446-.28-.224-.46-.297c-.18-.074-.38-.11-.596-.11-.218 0-.414.035-.59.11-.176.073-.328.172-.456.297s-.226.274-.297.447-.105.36-.105.557c0 .205.035.394.105.567s.17.322.298.447c.13.125.28.225.457.298.175.076.372.11.59.11zM22.722 37.087c.164 0 .3.055.406.165.107.11.16.247.16.41v3.808c0 .164-.052.3-.16.41-.107.11-.243.166-.406.166-.164 0-.3-.055-.406-.165-.107-.11-.16-.34-.16-.505 0-.02-.006-.032-.015-.038-.008-.006-.02 0-.033.018-.038.076-.097.155-.18.237s-.18.156-.296.22c-.116.068-.247.123-.392.167s-.302.066-.472.066c-.353 0-.677-.06-.973-.184-.296-.122-.55-.295-.766-.52-.214-.222-.38-.49-.5-.797-.12-.308-.18-.65-.18-1.02s.06-.713.18-1.026.287-.58.5-.805c.214-.223.47-.397.766-.52.296-.122.62-.183.973-.183.17 0 .328.023.472.067.145.043.275.098.393.164.118.067.216.14.298.222s.14.16.18.236c.01.02.023.026.033.02.01-.007.015-.02.015-.04 0-.163.053-.3.16-.41.107-.11.243-.165.407-.165zm-1.862 3.826c.214 0 .41-.036.585-.11.176-.072.328-.17.453-.292.126-.122.223-.27.293-.44s.105-.352.105-.547-.035-.38-.104-.552c-.068-.172-.166-.32-.292-.443s-.277-.22-.453-.292c-.176-.073-.372-.11-.585-.11-.214 0-.407.036-.58.11-.173.072-.323.17-.45.292s-.222.27-.292.444-.104.36-.104.553c0 .197.035.378.104.548.07.17.167.318.293.44.127.123.277.22.45.293.17.075.366.11.58.11zM26.355 41.474c0 .163-.054.298-.164.408-.11.11-.245.164-.407.164s-.296-.055-.398-.164c-.103-.11-.155-.245-.155-.408v-5.896c0-.162.054-.298.164-.408.11-.11.245-.164.408-.164.163 0 .296.055.398.164.103.11.155.246.155.408v5.896zM31.963 37.025c.17 0 .31.057.42.17.11.114.165.255.165.424v3.95c0 .422-.075.787-.224 1.092s-.344.557-.58.755-.507.344-.806.44c-.298.093-.597.14-.896.14-.208 0-.43-.016-.663-.05-.235-.032-.426-.08-.577-.145-.195-.085-.33-.188-.405-.312s-.09-.26-.044-.41c.058-.187.152-.316.282-.384.13-.07.267-.076.41-.024.103.032.237.067.404.103.166.035.362.053.59.053.33 0 .614-.07.848-.214.234-.144.387-.345.458-.605.013-.046-.006-.062-.058-.05-.143.058-.294.104-.453.136-.16.033-.333.05-.522.05-.364 0-.685-.06-.96-.177-.277-.117-.508-.28-.693-.493s-.327-.464-.424-.76c-.097-.296-.146-.626-.146-.99V37.62c0-.17.055-.31.166-.424.11-.113.25-.17.42-.17.17 0 .308.057.418.17.11.114.166.255.166.424v2.106c0 .403.088.71.263.926.176.215.44.322.79.322.358 0 .624-.107.8-.322s.263-.523.263-.926V37.62c0-.17.055-.31.166-.424.112-.113.253-.17.42-.17zM34.917 35.006c.163 0 .297.055.403.164.107.11.16.246.16.408v2.094c0 .024.005.04.014.042s.02-.005.034-.023c.037-.074.096-.152.177-.23.08-.077.18-.15.296-.215.116-.066.246-.118.39-.16s.3-.06.47-.06c.35 0 .673.06.967.182.294.122.548.294.76.516.213.222.38.488.498.8.12.31.178.648.178 1.018s-.06.71-.178 1.015-.285.57-.497.793c-.213.222-.466.394-.76.515-.295.122-.617.183-.968.183-.17 0-.327-.02-.47-.06s-.274-.095-.39-.16c-.115-.066-.214-.14-.295-.22s-.14-.16-.177-.235c-.013-.018-.024-.025-.034-.022-.01.003-.014.013-.014.033 0 .164-.053.3-.16.41-.106.108-.24.163-.403.163s-.297-.055-.403-.164c-.106-.11-.16-.246-.16-.41V35.58c0-.162.053-.298.16-.408.106-.11.24-.164.403-.164zm1.85 5.914c.213 0 .405-.036.578-.11.17-.07.32-.168.445-.29.125-.12.222-.267.29-.436s.104-.35.104-.545-.034-.378-.103-.55-.165-.32-.29-.44-.274-.22-.445-.29c-.172-.073-.365-.11-.578-.11s-.407.036-.583.11c-.175.07-.326.167-.45.29s-.222.268-.29.44-.104.355-.104.55c0 .195.034.375.103.544.07.17.166.315.29.437.126.122.276.22.45.29.176.075.37.11.584.11zM45.557 39.264c.012.18-.04.324-.158.435-.12.11-.26.166-.427.166H41.85c-.05 0-.07.026-.056.077.038.122.102.244.19.37.09.125.197.238.322.344.125.105.265.19.422.258.156.068.32.1.492.1.178 0 .332-.014.46-.042.127-.03.235-.062.324-.1.09-.04.164-.08.226-.12.06-.042.118-.078.177-.11.14-.072.274-.1.4-.082.13.017.238.085.327.207.083.114.108.24.077.373-.032.134-.117.256-.26.364-.088.07-.192.137-.315.202-.12.063-.256.12-.405.167-.152.048-.307.086-.47.115-.164.028-.324.043-.484.043-.396 0-.758-.062-1.087-.19-.33-.128-.614-.3-.854-.52-.24-.22-.426-.483-.56-.786-.134-.303-.2-.634-.2-.99 0-.415.07-.786.21-1.11.14-.326.327-.602.56-.83.234-.225.502-.398.805-.516.303-.118.615-.177.934-.177.21 0 .45.038.72.115.267.077.525.206.775.387.248.183.463.424.645.723.182.3.293.677.332 1.13zm-1.292-.344c.044 0 .068-.023.068-.068-.012-.114-.056-.223-.13-.325-.074-.102-.167-.19-.282-.268-.113-.078-.244-.138-.387-.183s-.292-.068-.445-.068-.303.022-.45.067c-.146.045-.277.105-.393.182-.114.076-.21.165-.283.267-.073.102-.116.21-.13.325 0 .046.024.068.07.068h2.363zm-1.733-3.395c0-.322.16-.483.48-.483h.247c.317 0 .478.16.478.483v.184c0 .32-.16.48-.48.48h-.247c-.32 0-.478-.16-.478-.48v-.185z"/></g></g></svg><svg height="26" viewBox="0 0 55 26" width="55" x="1" y="47"><path d="M42.19 26c-3.3 0-6.44-1.28-8.84-3.61l-5.85-5.27-5.87 5.29C19.25 24.72 16.11 26 12.81 26 5.75 26 0 20.17 0 13S5.75 0 12.81 0c3.31 0 6.46 1.29 8.86 3.62L27.5 8.9l5.86-5.3C35.73 1.29 38.88 0 42.19 0 49.25 0 55 5.83 55 13s-5.75 13-12.81 13zm-4.74-8.13l.08.08c1.27 1.23 2.92 1.91 4.66 1.91 3.73 0 6.76-3.08 6.76-6.86 0-3.78-3.03-6.86-6.76-6.86-1.74 0-3.4.68-4.67 1.92l-.13.11-5.34 4.84 5.4 4.86zM12.81 6.14c-3.73 0-6.76 3.08-6.76 6.86 0 3.78 3.03 6.86 6.76 6.86 1.74 0 3.39-.68 4.66-1.91l.05-.05 5.43-4.89-5.45-4.94c-1.29-1.25-2.95-1.93-4.69-1.93z" fill="#23272D"/></svg><svg height="41" viewBox="0 0 41 41" width="41" x="89" y="1"><circle fill="#FFD21A" cx="20.5" cy="20.5" r="14"/><path fill="#99E5ED" d="M20.542.002v4.5C29.36 4.525 36.5 11.678 36.5 20.5c0 8.837-7.163 16-16 16-8.823 0-15.975-7.14-15.998-15.958h-4.5C.025 31.844 9.192 41 20.5 41 31.822 41 41 31.822 41 20.5 41 9.192 31.844.025 20.542.002z"/></svg><svg height="41" viewBox="0 0 41 41" width="41" x="1" y="74"><circle fill="#FCF07E" cx="20.5" cy="20.5" r="14"/><path fill="#99E5ED" d="M20.5 0l-.042.002v4.5L20.5 4.5c6.52 0 12.117 3.905 14.61 9.498l4.108-1.834C36.022 5 28.85 0 20.5 0z"/></svg><svg height="41" viewBox="0 0 41 41" width="41" x="43" y="74"><circle fill="#FFFF1A" cx="20.5" cy="20.5" r="14"/><path fill="#99E5ED" d="M20.542.002v4.5C29.36 4.525 36.5 11.678 36.5 20.5s-7.14 15.975-15.958 15.998v4.5C31.844 40.975 41 31.808 41 20.5S31.844.025 20.542.002z"/></svg><svg height="41" viewBox="0 0 41 41" width="41" x="85" y="74"><circle fill="#FFE91A" cx="20.5" cy="20.5" r="14"/><path fill="#99E5ED" d="M20.542.002v4.5C29.36 4.525 36.5 11.678 36.5 20.5c0 8.837-7.163 16-16 16-5.293 0-9.972-2.58-12.884-6.542l-3.634 2.647C7.712 37.687 13.712 41 20.5 41 31.822 41 41 31.822 41 20.5 41 9.192 31.844.025 20.542.002z"/></svg><svg height="41" viewBox="0 0 41 41" width="41" x="131" y="1"><path fill="#99E5ED" d="M20.5 0C9.178 0 0 9.178 0 20.5S9.178 41 20.5 41 41 31.822 41 20.5 31.822 0 20.5 0zm0 36.5c-8.837 0-16-7.163-16-16s7.163-16 16-16 16 7.163 16 16-7.163 16-16 16z"/><circle fill="#FFBC1A" cx="20.5" cy="20.5" r="14"/></svg><svg height="37" viewBox="0 0 21 37" width="21" x="131" y="43"><path d="M2.73 37L0 34.26 15.56 18.5 0 2.74 2.73 0 21 18.5 2.73 37z" fill="#E5E5E5"/></svg><svg height="37" viewBox="0 0 21 37" width="21" x="1" y="116"><path d="M2.73 37L0 34.26 15.56 18.5 0 2.74 2.73 0 21 18.5 2.73 37z" fill="#61c3d5"/></svg><svg height="37" viewBox="0 0 21 37" width="21" x="23" y="116"><path d="M21 34.26L18.27 37 0 18.5 18.27 0 21 2.74 5.44 18.5 21 34.26z" fill="#E5E5E5"/></svg><svg height="37" viewBox="0 0 21 37" width="21" x="45" y="116"><path d="M21 34.26L18.27 37 0 18.5 18.27 0 21 2.74 5.44 18.5 21 34.26z" fill="#D1D1D1"/></svg><svg height="37" viewBox="0 0 21 37" width="21" x="67" y="116"><path d="M2.73 37L0 34.26 15.56 18.5 0 2.74 2.73 0 21 18.5 2.73 37z" fill="#D1D1D1"/></svg><svg height="37" viewBox="0 0 21 37" width="21" x="89" y="116"><path d="M21 34.26L18.27 37 0 18.5 18.27 0 21 2.74 5.44 18.5 21 34.26z" fill="#61c3d5"/></svg><svg height="36" viewBox="0 0 36 36" width="36" x="111" y="116"><circle cx="18" cy="18" r="18" fill="#7B519D"/><path d="M25.06 19.29c-.57-.01-.42-.62-.47-1.02-.54-4.38-2.52-6.44-6.8-7.11-.35-.06-.89.02-.86-.45.04-.71.68-.45.99-.49 4.11.14 7.65 3.96 7.6 8.08-.01.4.14 1-.46.99zm-6.19-4.84c1.18-.03 2.55 1.39 2.53 2.62.01.34-.02.7-.42.74-.28.04-.47-.2-.5-.5-.1-1.1-.67-1.75-1.76-1.92-.32-.06-.64-.16-.49-.61.1-.3.37-.33.64-.33zm-1.29-1.76c.1-.58.64-.38 1.05-.33 2.64.32 4.8 2.64 4.78 5.2-.04.3.13.82-.35.89-.65.1-.52-.5-.59-.89-.43-2.66-1.35-3.64-3.99-4.23-.39-.09-1-.03-.9-.64zm.31 10.01c.69.32 1.35.29 1.82-.43.83-1.29 1.86-1.23 2.98-.43.56.4 1.13.8 1.67 1.23.72.59 1.64 1.09 1.21 2.33-.46 1.3-2.02 2.6-3.35 2.59-.19-.06-.56-.11-.89-.26-5.85-2.56-10.1-6.75-12.52-12.77-.81-2.02.04-3.72 2.08-4.42.36-.13.72-.13 1.08 0 .87.33 3.08 3.41 3.13 4.33.04.7-.44 1.09-.91 1.41-.88.61-.89 1.39-.51 2.25.86 1.96 2.32 3.3 4.21 4.17z" fill="#FFF"/></svg><svg height="36" viewBox="0 0 36 36" width="36" x="173" y="1"><circle cx="18" cy="18" r="18" fill="#F73D3D"/><path d="M24 26h-5c-.55 0-1-.53-1-1.09V20c0-.55.45-1 1-1h4.91c.56 0 1.09.45 1.09 1v5c0 .55-.45 1-1 1zm0-6h-5v5h5v-5zm0-2h-5c-.55 0-1-.53-1-1.09V12c0-.55.45-1 1-1h4.91c.56 0 1.09.45 1.09 1v5c0 .55-.45 1-1 1zm0-6h-5v5h5v-5zm-8 14h-5c-.55 0-1-.53-1-1.09V20c0-.55.45-1 1-1h4.91c.56 0 1.09.45 1.09 1v5c0 .55-.45 1-1 1zm0-6h-5v5h5v-5zm0-2h-5c-.55 0-1-.53-1-1.09V12c0-.55.45-1 1-1h4.91c.56 0 1.09.45 1.09 1v5c0 .55-.45 1-1 1zm0-6h-5v5h5v-5z" fill="#FFF"/></svg><svg height="36" viewBox="0 0 36 36" width="36" x="173" y="38"><circle fill="#63C2D6" cx="18" cy="18" r="18"/><path fill="#FFF" d="M20.025 14.452V13.41l2.425.006c.356 0 .81-.19 1.152-.877l1.907-4.856c0-.475-.386-.86-.864-.86H11.35c-.474 0-.86.385-.86.86l1.907 4.855c.26.55.696.86 1.05.86l2.402.003v2.843c0 1.153.934 2.088 2.087 2.088 1.838 0 3.335 1.496 3.335 3.334 0 1.837-1.496 3.333-3.335 3.333-1.104 0-2.135-.546-2.76-1.463-.647-.954-1.95-1.2-2.9-.553-.955.65-1.202 1.95-.554 2.903 1.402 2.06 3.725 3.29 6.213 3.29 4.142 0 7.51-3.368 7.51-7.51.002-3.416-2.292-6.308-5.42-7.215zm1.743-5.712c.762 0 1.38.617 1.38 1.38 0 .76-.618 1.378-1.38 1.378-.763 0-1.38-.617-1.38-1.38.002-.76.618-1.378 1.38-1.378zm-7.537 2.758c-.762 0-1.378-.617-1.378-1.38 0-.76.616-1.378 1.38-1.378.76 0 1.378.617 1.378 1.38 0 .76-.617 1.378-1.38 1.378z"/></svg><svg height="36" viewBox="0 0 36 36" width="36" x="173" y="75"><circle cx="18" cy="18" r="18" fill="#00BDD3"/><path d="M27 20.54c0 1.51-.82 2.95-2.2 3.85.02.14.17.44.33.66.12.16.15.37.08.55-.07.19-.23.32-.42.36-.11.03-.23.04-.33.04-.66 0-1.11-.41-1.38-.65-.03-.03-.07-.06-.1-.09-.56.12-1.36.22-1.89.22-.77 0-1.5-.13-2.17-.36-.44.06-.89.1-1.34.1-.81 0-2.08-.16-2.91-.35-.07.05-.18.15-.26.22-.39.35-1 .91-1.88.91-.14 0-.29-.01-.45-.05-.19-.04-.34-.17-.41-.36-.07-.19-.04-.4.08-.55.26-.35.59-.99.54-1.29-.01-.04-.02-.05-.06-.08C10.21 22.38 9 20.3 9 18.11 9 14.19 12.85 11 17.58 11c4.69 0 8.51 3.14 8.57 7.02.53.74.85 1.6.85 2.52zm-4.12 3.56c.04-.01.13-.02.17-.02.26 0 .46.13.63.27 0-.07 0-.14.02-.22.05-.29.21-.53.46-.69 1.09-.7 1.71-1.75 1.71-2.9 0-2.08-2.14-3.78-4.78-3.78s-4.78 1.7-4.78 3.78c0 2.09 2.14 3.78 4.78 3.78.49 0 1.31-.1 1.79-.22zm-5.3-11.95c-4.11 0-7.46 2.67-7.46 5.96 0 1.79 1.02 3.51 2.71 4.58.3.2.5.49.56.85.06.34 0 .69-.11 1.01.12-.09.25-.2.39-.32.32-.3.69-.63 1.16-.51.55.14 1.39.26 2.09.31-1.07-.89-1.74-2.12-1.74-3.49 0-2.72 2.65-4.93 5.91-4.93 1.42 0 2.7.43 3.72 1.13-.78-2.63-3.72-4.59-7.23-4.59z" fill="#FFF"/></svg><svg height="36" viewBox="0 0 36 36" width="36" x="173" y="112"><circle cx="18" cy="18" r="18" fill="#F74D0F"/><path d="M3.32 18.18c-.06 0-.11.04-.12.1L3 19.82l.2 1.51c.01.06.06.11.12.11.05 0 .1-.05.11-.11l.24-1.51-.24-1.54c-.01-.06-.06-.1-.11-.1zm1.15-.84c-.01-.07-.06-.11-.12-.11s-.11.04-.11.11l-.28 2.48.28 2.43c0 .06.05.11.11.11s.11-.05.12-.11l.31-2.43-.31-2.48zm4.34-2.29c-.12 0-.21.09-.22.21l-.22 4.56.22 2.95c.01.12.1.21.22.21.11 0 .2-.09.21-.21l.25-2.95-.25-4.56c-.01-.12-.1-.21-.21-.21zm-2.25 1.59c-.09 0-.16.06-.16.16l-.25 3.02.25 2.93c0 .09.07.16.16.16s.16-.07.17-.16l.28-2.93-.28-3.03c-.01-.09-.08-.15-.17-.15zm4.53 6.34c.14 0 .25-.11.26-.26l.21-2.9-.21-6.08c-.01-.14-.12-.25-.26-.25s-.26.11-.26.25l-.19 6.08.19 2.9c0 .15.12.26.26.26zm4.67.01c.19 0 .35-.16.35-.35l.15-2.82-.15-7.02c0-.19-.16-.34-.35-.34-.2 0-.35.15-.36.34l-.13 7.02.13 2.82c.01.19.16.35.36.35zm-2.36-.01c.17 0 .31-.13.31-.3l.18-2.86-.18-6.12c0-.17-.14-.3-.31-.3-.16 0-.3.13-.3.3l-.17 6.12.17 2.86c0 .17.14.3.3.3zm-5.72-.03c.1 0 .18-.07.19-.18l.26-2.95-.26-2.81c-.01-.1-.09-.18-.19-.18s-.18.08-.19.18l-.23 2.81.23 2.95c.01.11.09.18.19.18zm-2.23-.16c.07 0 .13-.05.14-.13l.3-2.84-.3-2.94c-.01-.08-.07-.14-.14-.14s-.13.06-.14.14l-.26 2.94.26 2.84c.01.08.07.13.14.13zm9.13-9.19c-.19 0-.33.14-.34.33l-.14 5.89.14 2.84c.01.18.15.33.34.33.18 0 .32-.15.33-.33l.16-2.84-.16-5.9c-.01-.18-.15-.32-.33-.32zm-4.64 9.38c.13 0 .23-.1.24-.23l.23-2.93-.23-5.61c-.01-.13-.11-.23-.24-.23-.12 0-.23.1-.23.23l-.21 5.61.21 2.93c0 .13.11.23.23.23zm2.58-.27l.2-2.89-.2-6.28c0-.16-.12-.28-.28-.28-.15 0-.28.12-.28.28l-.18 6.28.18 2.89c0 .15.13.27.28.27.16 0 .28-.12.28-.27zm15.04-6.51c-.48 0-.93.1-1.34.27-.27-3.07-2.87-5.47-6.05-5.47-.77 0-1.53.15-2.2.41-.26.1-.33.2-.33.4v10.78c0 .21.16.38.37.4l9.55.01c1.9 0 3.44-1.52 3.44-3.4s-1.54-3.4-3.44-3.4zm-10.63-4.4c-.2 0-.37.16-.38.37l-.15 7.66.15 2.77c.01.21.18.37.38.37.21 0 .38-.16.38-.37l.17-2.77-.17-7.66c0-.21-.17-.37-.38-.37z" fill="#FFF"/></svg><svg height="36" viewBox="0 0 36 36" width="36" x="1" y="154"><circle fill="#3B589E" cx="18" cy="18" r="18"/><path fill="#FFF" d="M19.84 23.588h3.482l.45-4.386h-3.93v-2.578c0-.968.64-1.194 1.092-1.194h2.774v-4.256l-3.82-.015c-4.242 0-5.207 3.174-5.207 5.205v2.837H12.23v4.386h2.453V35.68c1.078.202 2.185.32 3.32.32.62 0 1.235-.032 1.84-.093v-12.32z"/></svg><svg height="36" viewBox="0 0 36 36" width="36" x="38" y="154"><circle cx="18" cy="18" r="18" fill="#3B579D"/><path d="M21.33 15.23c-.73 0-1.4-.29-1.88-.76l-5.3 3.02c.11.29.18.61.18.94 0 .33-.06.64-.17.92l5.24 3.24c.48-.5 1.17-.82 1.93-.82 1.47 0 2.67 1.17 2.67 2.61 0 1.45-1.2 2.62-2.67 2.62s-2.66-1.17-2.66-2.62c0-.31.06-.6.16-.88l-5.25-3.25c-.49.49-1.16.8-1.91.8-1.47 0-2.67-1.17-2.67-2.62 0-1.44 1.2-2.61 2.67-2.61.74 0 1.4.29 1.89.77l5.3-3.01c-.12-.3-.19-.62-.19-.96 0-1.45 1.19-2.62 2.66-2.62C22.8 10 24 11.17 24 12.62c0 1.44-1.2 2.61-2.67 2.61zm0 10.71c.88 0 1.59-.7 1.59-1.56 0-.85-.71-1.55-1.59-1.55-.87 0-1.58.7-1.58 1.55 0 .86.71 1.56 1.58 1.56zm-9.66-9.06c-.88 0-1.59.7-1.59 1.55 0 .86.71 1.56 1.59 1.56.87 0 1.58-.7 1.58-1.56 0-.85-.71-1.55-1.58-1.55zm9.66-5.82c-.87 0-1.58.7-1.58 1.56 0 .85.71 1.55 1.58 1.55.88 0 1.59-.7 1.59-1.55 0-.86-.71-1.56-1.59-1.56z" fill="#FFF"/></svg><svg height="36" viewBox="0 0 36 36" width="36" x="75" y="154"><circle cx="18" cy="18" r="18" fill="#F74D0F"/><path d="M23 26h-1c-.55 0-1-.45-1-1V10c0-.55.45-1 1-1h1c.55 0 1 .45 1 1v15c0 .55-.45 1-1 1zm0-16h-1v15h1V10zm-4 16h-1c-.55 0-1-.45-1-1V15c0-.55.45-1 1-1h1c.55 0 1 .45 1 1v10c0 .55-.45 1-1 1zm0-11h-1v10h1V15zm-4.14 11H14c-.55 0-1-.45-1-1v-6c0-.55.45-1 1-1h.86c.55 0 1.14.45 1.14 1v6c0 .55-.59 1-1.14 1zm.14-7h-1v6h1v-6zm-4 7h-1c-.55 0-1-.45-1-1v-3c0-.55.45-1 1-1h1c.55 0 1 .45 1 1v3c0 .55-.45 1-1 1zm0-4h-1v3h1v-3z" fill="#FFF"/></svg><svg height="36" viewBox="0 0 36 36" width="36" x="112" y="154"><circle cx="18" cy="18" r="18" fill="#7B519D"/><path d="M20.9 26h-5.8c-1.16 0-2.1-.92-2.1-2.06V12.06c0-1.14.94-2.06 2.1-2.06h5.8c1.16 0 2.1.92 2.1 2.06v11.88c0 1.14-.94 2.06-2.1 2.06zM18 25c.55 0 1-.45 1-1s-.45-1-1-1-1 .45-1 1 .45 1 1 1zm4-13c0-.57-.42-1-1-1h-6c-.58 0-1 .43-1 1v9c0 .57.42 1 1 1h6c.58 0 1-.43 1-1v-9z" fill="#FFF"/></svg><svg height="26" viewBox="0 0 34 26" width="34" x="131" y="81"><g fill="#FFF"><path d="M30 26H4.02c-2.21 0-4-.79-4-3V10C0 8.66.05 8.13.05 8H.02l8-8H30c2.21 0 4 1.79 4 4v19c0 2.21-1.79 3-4 3zM2.02 8l6-6-6 6zM32 4c0-1.1-.89-2-2-2H10.01L2.02 9s2.39.05 0 .03V23c0 1.1.89 1 2 1H30c1.11 0 2 .1 2-1V4zm-4 15h-4c-.55 0-1-.45-1-1s.45-1 1-1h4c.55 0 1 .45 1 1s-.45 1-1 1zm0-3h-4c-.55 0-1-.45-1-1 0-.56.45-1 1-1h4c.55 0 1 .44 1 1 0 .55-.45 1-1 1zm0-3h-4c-.55 0-1-.45-1-1s.45-1 1-1h4c.55 0 1 .45 1 1s-.45 1-1 1zm-9 6h-4c-.55 0-1-.45-1-1s.45-1 1-1h4c.55 0 1 .45 1 1s-.45 1-1 1zm0-3h-4c-.55 0-1-.45-1-1 0-.56.45-1 1-1h4c.55 0 1 .44 1 1 0 .55-.45 1-1 1zm0-3h-4c-.55 0-1-.45-1-1s.45-1 1-1h4c.55 0 1 .45 1 1s-.45 1-1 1z"/><path d="M27 20c.55 0 1-.45 1-1v-8c0-.55-.45-1-1-1H16c-.55 0-1 .45-1 1v8c0 .55.45 1 1 1h11m0 1H16c-1.1 0-2-.9-2-2v-8c0-1.1.9-2 2-2h11c1.1 0 2 .9 2 2v8c0 1.1-.9 2-2 2z"/></g></svg><svg height="26" viewBox="0 0 34 26" width="34" x="89" y="43"><g fill="#23272D"><path d="M30 26H4.02c-2.21 0-4-.79-4-3V10C0 8.66.05 8.13.05 8H.02l8-8H30c2.21 0 4 1.79 4 4v19c0 2.21-1.79 3-4 3zM2.02 8l6-6-6 6zM32 4c0-1.1-.89-2-2-2H10.01L2.02 9s2.39.05 0 .03V23c0 1.1.89 1 2 1H30c1.11 0 2 .1 2-1V4zm-4 15h-4c-.55 0-1-.45-1-1s.45-1 1-1h4c.55 0 1 .45 1 1s-.45 1-1 1zm0-3h-4c-.55 0-1-.45-1-1 0-.56.45-1 1-1h4c.55 0 1 .44 1 1 0 .55-.45 1-1 1zm0-3h-4c-.55 0-1-.45-1-1s.45-1 1-1h4c.55 0 1 .45 1 1s-.45 1-1 1zm-9 6h-4c-.55 0-1-.45-1-1s.45-1 1-1h4c.55 0 1 .45 1 1s-.45 1-1 1zm0-3h-4c-.55 0-1-.45-1-1 0-.56.45-1 1-1h4c.55 0 1 .44 1 1 0 .55-.45 1-1 1zm0-3h-4c-.55 0-1-.45-1-1s.45-1 1-1h4c.55 0 1 .45 1 1s-.45 1-1 1z"/><path d="M27 20c.55 0 1-.45 1-1v-8c0-.55-.45-1-1-1H16c-.55 0-1 .45-1 1v8c0 .55.45 1 1 1h11m0 1H16c-1.1 0-2-.9-2-2v-8c0-1.1.9-2 2-2h11c1.1 0 2 .9 2 2v8c0 1.1-.9 2-2 2z"/></g></svg><svg height="32" viewBox="0 0 32 32" width="32" x="149" y="154"><path d="M30 24l-2.26-.6C25.48 28.46 20.41 32 14.5 32 6.49 32 0 25.51 0 17.5 0 10.03 5.72 3.79 13 3V0h2c9 0 17 7.42 17 16.57 0 3.09-.91 5.63-2 7.43zm-17-5.57V5c-6.08.88-11 6.21-11 12.5C2 24.4 7.6 30 14.5 30c4.66 0 9.52-2.87 11.21-7.14L13 18.43z" fill="#FFF"/></svg><svg height="32" viewBox="0 0 32 32" width="32" x="210" y="1"><path d="M30 24l-2.26-.6C25.48 28.46 20.41 32 14.5 32 6.49 32 0 25.51 0 17.5 0 10.03 5.72 3.79 13 3V0h2c9 0 17 7.42 17 16.57 0 3.09-.91 5.63-2 7.43zm-17-5.57V5c-6.08.88-11 6.21-11 12.5C2 24.4 7.6 30 14.5 30c4.66 0 9.52-2.87 11.21-7.14L13 18.43z" fill="#23272D"/></svg><svg height="32" viewBox="0 0 31 32" width="31" x="210" y="34"><path d="M24 25.46c3.01-1.7 5-4.63 5-7.96 0-2.11-.81-4.05-2.15-5.63.09-.61.15-1.23.15-1.87 0-.29-.03-.58-.05-.86 2.49 2.07 4.05 4.99 4.05 8.24 0 3.63-1.96 6.87-5 8.95V32l-5.61-3.45c-.77.13-1.57.2-2.39.2-3.85 0-6.3-1.47-8.68-3.8.39.02.78.05 1.18.05.56 0 1.11-.03 1.65-.07C14.03 26.22 15.41 27 18 27c.89 0 1.76-.1 2.59-.28L24 29v-3.54zM13 23c-.82 0-2.59-.14-3.36-.26L4 26v-5.67c-2.61-2.23-4-5.32-4-8.96C0 5.09 5.81 0 13 0c5.98 0 12 5.09 12 11.37C25 17.66 20.18 23 13 23zm-3.59-2.28c.83.18 2.7.28 3.59.28 6.08 0 10-4.25 10-9.5S17.97 2 13 2C6.75 2 2 6.25 2 11.5c0 3.33 1.56 5.98 4 7.96V23l3.41-2.28zM18.5 13c-.83 0-1.5-.67-1.5-1.5s.67-1.5 1.5-1.5 1.5.67 1.5 1.5-.67 1.5-1.5 1.5zm-6 0c-.83 0-1.5-.67-1.5-1.5s.67-1.5 1.5-1.5 1.5.67 1.5 1.5-.67 1.5-1.5 1.5zm-6 0c-.83 0-1.5-.67-1.5-1.5S5.67 10 6.5 10s1.5.67 1.5 1.5S7.33 13 6.5 13z" fill="#FFF"/></svg><svg height="32" viewBox="0 0 31 32" width="31" x="210" y="67"><path d="M24 25.46c3.01-1.7 5-4.63 5-7.96 0-2.11-.81-4.05-2.15-5.63.09-.61.15-1.23.15-1.87 0-.29-.03-.58-.05-.86 2.49 2.07 4.05 4.99 4.05 8.24 0 3.63-1.96 6.87-5 8.95V32l-5.61-3.45c-.77.13-1.57.2-2.39.2-3.85 0-6.3-1.47-8.68-3.8.39.02.78.05 1.18.05.56 0 1.11-.03 1.65-.07C14.03 26.22 15.41 27 18 27c.89 0 1.76-.1 2.59-.28L24 29v-3.54zM13 23c-.82 0-2.59-.14-3.36-.26L4 26v-5.67c-2.61-2.23-4-5.32-4-8.96C0 5.09 5.81 0 13 0c5.98 0 12 5.09 12 11.37C25 17.66 20.18 23 13 23zm-3.59-2.28c.83.18 2.7.28 3.59.28 6.08 0 10-4.25 10-9.5S17.97 2 13 2C6.75 2 2 6.25 2 11.5c0 3.33 1.56 5.98 4 7.96V23l3.41-2.28zM18.5 13c-.83 0-1.5-.67-1.5-1.5s.67-1.5 1.5-1.5 1.5.67 1.5 1.5-.67 1.5-1.5 1.5zm-6 0c-.83 0-1.5-.67-1.5-1.5s.67-1.5 1.5-1.5 1.5.67 1.5 1.5-.67 1.5-1.5 1.5zm-6 0c-.83 0-1.5-.67-1.5-1.5S5.67 10 6.5 10s1.5.67 1.5 1.5S7.33 13 6.5 13z" fill="#23272D"/></svg><svg height="31" viewBox="0 0 19 31" width="19" x="210" y="100"><path d="M16 31H3c-1.66 0-3-1.34-3-3V3c0-1.66 1.34-3 3-3h13c1.66 0 3 1.34 3 3v25c0 1.66-1.34 3-3 3zm-6.5-2c.83 0 1.5-.67 1.5-1.5S10.33 26 9.5 26 8 26.67 8 27.5 8.67 29 9.5 29zM17 2H2v22h15V2z" fill="#23272D"/></svg><svg height="30" viewBox="0 0 30 30" width="30" x="210" y="132"><path d="M15.01 30c-8.28 0-15-6.71-15-14.99 0-8.28 6.72-15 15-15C23.29.01 30 6.73 30 15.01 30 23.29 23.29 30 15.01 30zM15 2C7.82 2 2 7.82 2 15s5.82 13 13 13 13-5.82 13-13S22.18 2 15 2zm-1.05 11.45l3.52-3.1-.92 4.6 1.73 1 1.32-9.28-7.38 5.78 1.73 1zM13 15.5c0-.83.67-1.5 1.5-1.5s1.5.67 1.5 1.5-.67 1.5-1.5 1.5-1.5-.67-1.5-1.5zm2.05 2.05l-3.52 3.1.92-4.6-1.73-1-1.32 9.28 7.38-5.78-1.73-1z" fill="#23272D"/></svg><svg height="30" viewBox="0 0 30 30" width="30" x="1" y="191"><path d="M15.01 30c-8.28 0-15-6.71-15-14.99 0-8.28 6.72-15 15-15C23.29.01 30 6.73 30 15.01 30 23.29 23.29 30 15.01 30zM15 2C7.82 2 2 7.82 2 15s5.82 13 13 13 13-5.82 13-13S22.18 2 15 2zm-1.05 11.45l3.52-3.1-.92 4.6 1.73 1 1.32-9.28-7.38 5.78 1.73 1zM13 15.5c0-.83.67-1.5 1.5-1.5s1.5.67 1.5 1.5-.67 1.5-1.5 1.5-1.5-.67-1.5-1.5zm2.05 2.05l-3.52 3.1.92-4.6-1.73-1-1.32 9.28 7.38-5.78-1.73-1z" fill="#FFF"/></svg><svg height="30" viewBox="0 0 30 30" width="30" x="32" y="191"><circle cx="15" cy="15" r="15" fill="#FFED00"/><path d="M20 21H10c-.55 0-1-.45-1-1v-2-2-1c0-.55.45-1 1-1s1 .45 1 1v4h8v-1-2-1c0-.55.45-1 1-1s1 .45 1 1v5c0 .55-.45 1-1 1zm-4-4c0 .55-.45 1-1 1s-1-.45-1-1v-4h-3l4-4 4 4h-3v4z" fill="#252D35"/></svg><svg height="30" viewBox="0 -4 30 30" width="30" x="63" y="191"><path fill="#FFF" d="M29.48 4.19c-.01-.11-.04-.23-.07-.34-.01-.05-.03-.1-.04-.15-.39-1.15-1.46-1.98-2.72-1.98h.2S21.76.94 15 .91c-6.76.03-11.85.81-11.85.81h.2c-1.26 0-2.33.83-2.72 1.98-.01.05-.03.1-.04.15-.03.11-.06.23-.07.34C.33 5.53.03 8.2 0 11.39c.03 3.2.33 5.87.52 7.2.01.12.04.23.07.34.01.06.03.11.04.16.39 1.15 1.46 1.98 2.72 1.98h-.2s5.09.78 11.85.81c6.76-.03 11.85-.81 11.85-.81h-.2c1.26 0 2.33-.83 2.72-1.98.01-.05.03-.1.04-.16.03-.11.06-.22.07-.34.19-1.33.49-4 .52-7.2-.03-3.19-.33-5.86-.52-7.2zm-10.04 7.85l-6.05 4.46c-.13.1-.28.14-.43.14-.12 0-.23-.02-.33-.07-.25-.13-.4-.39-.4-.66V6.99c0-.28.15-.53.4-.66.24-.13.53-.1.76.06l6.05 4.46c.19.14.3.36.3.6 0 .23-.11.45-.3.59z"/></svg><svg height="30" viewBox="0 0 30 30" width="30" x="94" y="191"><circle cx="15" cy="15" r="15" fill="#61c3d5"/><path d="M20 21H10c-.55 0-1-.45-1-1v-2-2-1c0-.55.45-1 1-1s1 .45 1 1v4h8v-1-2-1c0-.55.45-1 1-1s1 .45 1 1v5c0 .55-.45 1-1 1zm-4-4c0 .55-.45 1-1 1s-1-.45-1-1v-4h-3l4-4 4 4h-3v4z" fill="#fff"/></svg><svg height="30" viewBox="1 0 30 30" width="30" x="125" y="191"><path fill="#FFF" d="M29.436 15.48c-.97-.02-.72-1.03-.81-1.7-.93-7.29-4.33-10.74-11.7-11.85-.61-.09-1.54.04-1.5-.75.07-1.18 1.18-.74 1.71-.82 7.08.24 13.17 6.6 13.09 13.47-.01.67.24 1.67-.79 1.65zm-10.65-8.07c2.02-.05 4.38 2.33 4.35 4.38.02.56-.04 1.16-.72 1.23-.49.06-.81-.34-.86-.84-.19-1.83-1.17-2.91-3.04-3.2-.55-.09-1.1-.27-.84-1.01.17-.5.64-.55 1.11-.56zm-2.23-2.93c.17-.96 1.1-.63 1.81-.55 4.55.54 8.26 4.41 8.22 8.67-.06.5.23 1.37-.59 1.49-1.12.17-.91-.84-1.01-1.49-.75-4.43-2.34-6.06-6.89-7.06-.67-.14-1.71-.04-1.54-1.06zm.54 16.69c1.18.53 2.32.48 3.12-.72 1.44-2.15 3.21-2.04 5.14-.71.97.67 1.95 1.32 2.87 2.05 1.25.99 2.83 1.81 2.08 3.88-.77 2.16-3.46 4.33-5.76 4.31-.32-.09-.96-.19-1.53-.43-10.08-4.26-17.4-11.25-21.57-21.28-1.39-3.37.07-6.21 3.58-7.37.63-.21 1.25-.22 1.87 0 1.5.54 5.3 5.68 5.38 7.21.07 1.18-.75 1.82-1.55 2.36-1.53 1.02-1.54 2.31-.89 3.75 1.48 3.26 4 5.5 7.26 6.95z"/></svg><svg height="30" viewBox="-7 0 30 30" width="30" x="156" y="191"><path fill="#E6EBED" d="M4 16v14h6V16h4l1-5h-5V7c0-.56 1.06-2 2-2h3V0H8.75C6.65 0 4 2.34 4 5v6l-4 .03V16h4z"/></svg><svg height="30" viewBox="-1 -1 30 30" width="30" x="187" y="191"><path fill="#FFF" d="M22.2 0H5.8C2.6 0 0 2.6 0 5.8v16.4C0 25.4 2.6 28 5.8 28h16.4c3.2 0 5.8-2.6 5.8-5.8V5.8C28 2.6 25.4 0 22.2 0zM24 4v3h-3V4h3zM9.72 10.92c.96-1.33 2.52-2.2 4.28-2.2s3.32.87 4.28 2.2c.63.87 1 1.93 1 3.08 0 2.91-2.37 5.28-5.28 5.28S8.72 16.91 8.72 14c0-1.15.37-2.21 1-3.08zM26.08 22.2c0 1.59-2.29 3.88-3.88 3.88H5.8c-1.59 0-3.88-2.29-3.88-3.88V10.92H6.4c-.39.95-.6 1.99-.6 3.08 0 4.52 3.68 8.2 8.2 8.2s8.2-3.68 8.2-8.2c0-1.09-.22-2.13-.6-3.08h4.48V22.2z"/></svg><svg height="23" viewBox="0 0 13 23" width="13" x="210" y="163"><path fill-rule="evenodd" clip-rule="evenodd" fill="#fff" d="M4 12v11h5V12h3l1-4H9V6c0-.562 1.058-2 2-2h2V0H8.753C6.645 0 4 1.344 4 4v4l-4 .03V12h4z"/></svg><svg height="18" viewBox="0 0 19 18" width="19" x="153" y="43"><path d="M18 8H1c-.55 0-1-.45-1-1V6c0-.55.45-1 1-1h17c.55 0 1 .45 1 1v1c0 .55-.45 1-1 1zm-4-5H1c-.55 0-1-.45-1-1V1c0-.55.45-1 1-1h13c.55 0 1 .45 1 1v1c0 .55-.45 1-1 1zM1 10h11c.55 0 1 .45 1 1v1c0 .55-.45 1-1 1H1c-.55 0-1-.45-1-1v-1c0-.55.45-1 1-1zm0 5h15c.55 0 1 .45 1 1v1c0 .55-.45 1-1 1H1c-.55 0-1-.45-1-1v-1c0-.55.45-1 1-1z" fill="#FFED00"/></svg><svg height="18" viewBox="0 0 19 18" width="19" x="153" y="62"><path d="M18 8H1c-.55 0-1-.45-1-1V6c0-.55.45-1 1-1h17c.55 0 1 .45 1 1v1c0 .55-.45 1-1 1zm-4-5H1c-.55 0-1-.45-1-1V1c0-.55.45-1 1-1h13c.55 0 1 .45 1 1v1c0 .55-.45 1-1 1zM1 10h11c.55 0 1 .45 1 1v1c0 .55-.45 1-1 1H1c-.55 0-1-.45-1-1v-1c0-.55.45-1 1-1zm0 5h15c.55 0 1 .45 1 1v1c0 .55-.45 1-1 1H1c-.55 0-1-.45-1-1v-1c0-.55.45-1 1-1z"/></svg><svg height="18" viewBox="0 0 16 18" width="16" x="224" y="163"><path fill="#1E2125" d="M7.45 14l4-4-4-4v3H1c-.552 0-1 .448-1 1s.448 1 1 1h6.45v3M15 0H2c-.552 0-1 .448-1 1v5c0 .552.448 1 1 1h1c.552 0 1-.448 1-1V3h9v12H4c-.552 0-1 .448-1 1v1c0 .552.448 1 1 1h11c.552 0 1-.448 1-1V1c0-.552-.448-1-1-1z"/></svg><svg height="18" viewBox="0 0 16 18" width="16" x="57" y="47"><path fill="#FFED00" d="M7.45 14l4-4-4-4v3H1c-.552 0-1 .448-1 1s.448 1 1 1h6.45v3M15 0H2c-.552 0-1 .448-1 1v5c0 .552.448 1 1 1h1c.552 0 1-.448 1-1V3h9v12H4c-.552 0-1 .448-1 1v1c0 .552.448 1 1 1h11c.552 0 1-.448 1-1V1c0-.552-.448-1-1-1z"/></svg><svg height="17" viewBox="0 0 17 17" width="17" x="148" y="116"><path fill="#fff" d="M8.497 8.04h.015c.942-.008 1.78-.688 2.33-1.748.423-.813.677-1.848.677-2.977 0-.46-.044-.9-.122-1.32-.024-.13-.052-.257-.083-.382-.128-.517-.48-.968-.986-1.202C9.755.147 9.147 0 8.517 0c-.005 0-.015.004-.015 0 0-.002 0 0-.002 0h-.002c0 .003-.008 0-.012 0-.626.003-1.23.144-1.8.405-.51.235-.872.688-1.002 1.21-.03.125-.058.252-.082.382-.08.42-.122.86-.122 1.32 0 1.127.253 2.162.675 2.976.554 1.063 1.397 1.745 2.342 1.747zm7.685 3.048c-.16-.43-.35-.872-.666-1.217-.893-.972-2.524-1.503-4.18-1.766-.206-.033-.413.04-.567.175-.655.576-1.426.893-2.246.9h-.02c-.833-.002-1.612-.32-2.27-.9-.156-.135-.364-.21-.57-.176-1.657.263-3.288.795-4.18 1.767-.318.345-.507.788-.666 1.218 0 0-.73 2.367-.81 4.356-.008.212.042.44.224.558 1.022.665 4.642.997 8.266.998h.005c3.623 0 7.244-.333 8.266-.998.18-.118.23-.346.223-.558-.08-1.99-.81-4.356-.81-4.356z"/></svg><svg height="17" viewBox="0 0 17 17" width="17" x="148" y="134"><path fill="#ffed00" d="M8.497 8.04h.015c.942-.008 1.78-.688 2.33-1.748.423-.813.677-1.848.677-2.977 0-.46-.044-.9-.122-1.32-.024-.13-.052-.257-.083-.382-.128-.517-.48-.968-.986-1.202C9.755.147 9.147 0 8.517 0c-.005 0-.015.004-.015 0 0-.002 0 0-.002 0h-.002c0 .003-.008 0-.012 0-.626.003-1.23.144-1.8.405-.51.235-.872.688-1.002 1.21-.03.125-.058.252-.082.382-.08.42-.122.86-.122 1.32 0 1.127.253 2.162.675 2.976.554 1.063 1.397 1.745 2.342 1.747zm7.685 3.048c-.16-.43-.35-.872-.666-1.217-.893-.972-2.524-1.503-4.18-1.766-.206-.033-.413.04-.567.175-.655.576-1.426.893-2.246.9h-.02c-.833-.002-1.612-.32-2.27-.9-.156-.135-.364-.21-.57-.176-1.657.263-3.288.795-4.18 1.767-.318.345-.507.788-.666 1.218 0 0-.73 2.367-.81 4.356-.008.212.042.44.224.558 1.022.665 4.642.997 8.266.998h.005c3.623 0 7.244-.333 8.266-.998.18-.118.23-.346.223-.558-.08-1.99-.81-4.356-.81-4.356z"/></svg><svg height="15" viewBox="0 0 17 15" width="17" x="182" y="154"><path d="M0 0v15h15V7.95l-2 2.027V13H2V2h9.082l2.113-2H0z" fill="#61c3d5"/><path d="M14.65.99L8.31 7.32 5.35 4.37 3 6.71 8.31 12 17 3.33 14.65.99z" fill="#61c3d5"/></svg><svg height="16" viewBox="0 0 16 16" width="16" x="182" y="170"><path d="M8 15c3.86 0 7-3.14 7-7s-3.14-7-7-7-7 3.14-7 7 3.14 7 7 7m0 1c-4.42 0-8-3.58-8-8s3.58-8 8-8 8 3.58 8 8-3.58 8-8 8z" fill="#EDF1F3"/><path d="M12 9c-.55 0-1-.45-1-1s.45-1 1-1 1 .45 1 1-.45 1-1 1zM8 9c-.55 0-1-.45-1-1s.45-1 1-1 1 .45 1 1-.45 1-1 1zM4 9c-.55 0-1-.45-1-1s.45-1 1-1 1 .45 1 1-.45 1-1 1z" fill="#FFF"/></svg><svg height="16" viewBox="0 0 16 16" width="16" x="218" y="191"><g fill="#A1A9AF"><path d="M8 15c3.86 0 7-3.14 7-7s-3.14-7-7-7-7 3.14-7 7 3.14 7 7 7m0 1c-4.42 0-8-3.58-8-8s3.58-8 8-8 8 3.58 8 8-3.58 8-8 8z"/><path d="M12 9c-.55 0-1-.45-1-1s.45-1 1-1 1 .45 1 1-.45 1-1 1zM8 9c-.55 0-1-.45-1-1s.45-1 1-1 1 .45 1 1-.45 1-1 1zM4 9c-.55 0-1-.45-1-1s.45-1 1-1 1 .45 1 1-.45 1-1 1z"/></g></svg><svg height="16" viewBox="0 0 16 16" width="16" x="1" y="222"><g fill="#23272D"><path d="M8 15c3.86 0 7-3.14 7-7s-3.14-7-7-7-7 3.14-7 7 3.14 7 7 7m0 1c-4.42 0-8-3.58-8-8s3.58-8 8-8 8 3.58 8 8-3.58 8-8 8z"/><path d="M12 9c-.55 0-1-.45-1-1s.45-1 1-1 1 .45 1 1-.45 1-1 1zM8 9c-.55 0-1-.45-1-1s.45-1 1-1 1 .45 1 1-.45 1-1 1zM4 9c-.55 0-1-.45-1-1s.45-1 1-1 1 .45 1 1-.45 1-1 1z"/></g></svg><svg height="16" viewBox="0 0 16 16" width="16" x="18" y="222"><path d="M15.55 9.43l-1.14.12c-.16.67-.43 1.3-.79 1.88l.73.9c.16.2.14.49-.04.67l-1.32 1.32c-.18.18-.47.19-.67.03l-.92-.73c-.58.34-1.2.6-1.86.75l-.13 1.18c-.03.26-.24.45-.5.45H7.04c-.25 0-.47-.19-.5-.45l-.13-1.2c-.63-.16-1.23-.41-1.79-.75l-.92.73c-.2.16-.48.14-.66-.04l-1.33-1.32c-.18-.18-.19-.46-.03-.66l.73-.91c-.35-.57-.61-1.19-.77-1.84L.45 9.43C.19 9.4 0 9.19 0 8.93V7.07c0-.26.19-.47.45-.5l1.19-.13c.16-.66.42-1.28.77-1.85l-.74-.92c-.16-.2-.14-.49.04-.67l1.32-1.32c.18-.18.47-.19.67-.03l.92.74c.56-.34 1.16-.59 1.79-.75l.13-1.2c.03-.25.25-.44.5-.44h1.87c.26 0 .47.19.5.44l.13 1.17c.66.16 1.29.41 1.87.77l.91-.73c.2-.16.49-.15.67.03L14.31 3c.18.18.2.47.04.67l-.72.89c.36.59.62 1.22.78 1.89l1.14.12c.26.03.45.24.45.5v1.86c0 .26-.19.47-.45.5zM15 7.52l-1.05-.12c-.22-.02-.4-.19-.44-.41-.15-.78-.45-1.51-.91-2.17-.13-.18-.12-.43.02-.6l.67-.83-.69-.68-.84.67c-.17.14-.41.15-.6.02-.65-.44-1.38-.74-2.17-.88-.21-.03-.38-.21-.41-.43L8.46 1h-.97l-.12 1.1c-.03.22-.19.4-.41.44-.75.15-1.45.44-2.09.87-.18.13-.42.12-.59-.02l-.86-.68-.69.68.69.85c.14.17.14.42.02.6-.45.65-.75 1.37-.9 2.15-.04.22-.21.38-.43.4L1 7.52v.96l1.11.13c.22.02.4.18.44.4.14.77.44 1.49.89 2.13.12.19.11.43-.03.6l-.67.84.69.69.84-.68c.17-.14.42-.15.6-.02.63.44 1.34.73 2.09.88.22.04.38.21.41.43L7.49 15h.97l.12-1.1c.03-.22.2-.4.42-.44.78-.13 1.5-.43 2.16-.87.18-.12.42-.11.59.02l.85.68.69-.68-.68-.84c-.14-.17-.14-.42-.02-.6.46-.65.77-1.38.92-2.16.04-.22.21-.39.43-.41L15 8.48v-.96zM8 10c-1.1 0-2-.9-2-2s.9-2 2-2 2 .9 2 2-.9 2-2 2zm0-3c-.55 0-1 .45-1 1s.45 1 1 1 1-.45 1-1-.45-1-1-1z" fill="#A1A9AF"/></svg><svg height="16" viewBox="0 0 16 16" width="16" x="35" y="222"><path d="M8 16c-4.42 0-8-3.58-8-8s3.58-8 8-8 8 3.58 8 8-3.58 8-8 8zM8 2C4.69 2 2 4.69 2 8s2.69 6 6 6 6-2.69 6-6-2.69-6-6-6zm1 7.82V10H8 7V8.5c0-.28.22-.5.5-.5H8c.55 0 1-.45 1-1s-.45-1-1-1-1 .45-1 1H5c0-1.66 1.34-3 3-3s3 1.34 3 3c0 1.3-.84 2.4-2 2.82zM9 11v1H8 7v-.5-.5h2z" fill="#FFED00"/></svg><svg height="11" viewBox="0 0 16 11" width="16" x="218" y="208"><path d="M8 10V9h8v1H8zm6-5h2v1h-2V5zm-1 2H9V4h4v3zm-3-6h6v1h-6V1zM5 0h4v3H5V0zM0 1h4v1H0V1zm8 5H0V5h8v1zm-6 4H0V9h2v1zm5 1H3V8h4v3z" fill="#FFF" opacity=".4"/></svg><svg height="16" viewBox="0 0 10 16" width="10" x="230" y="100"><path d="M10 14.2c0 .98-.76 1.8-1.67 1.8H1.67C.76 16 0 15.18 0 14.2V1.8C0 .82.76 0 1.67 0h6.66C9.24 0 10 .82 10 1.8v12.4zM9 4H1v8h8V4zM6 2H4c-.12 0 .06.02-.25.03-.13 0 .13.97.25.97h2c.12 0 .25-.85.25-.97C6.25 1.9 6.12 2 6 2zM5 13c-.57 0-1 .38-1 1s.43 1 1 1c.57 0 1-.38 1-1s-.43-1-1-1z" fill="#23272D"/></svg><svg height="15" viewBox="0 0 15 15" width="15" x="52" y="222"><path d="M15 7.5c0 4.14-3.36 7.5-7.5 7.5C3.36 15 0 11.64 0 7.5 0 3.36 3.36 0 7.5 0 11.64 0 15 3.36 15 7.5zM9.95 5.27c.05-.01.1-.18.13-.22.06-.07.13-.11.21-.15.17-.07.33-.09.51-.11.17-.04.37-.04.5.1-.03-.03.2-.23.23-.24.09-.05.24-.03.3-.12.02-.03.02-.21.02-.21-.17.02-.23-.14-.24-.28 0 .01-.02.04-.06.08.01-.14-.17-.04-.24-.06-.23-.06-.2-.21-.27-.38-.03-.09-.14-.12-.18-.2-.04-.06-.06-.19-.15-.2-.06-.01-.16.21-.18.2-.09-.05-.13.02-.2.06-.06.03-.11.02-.16.04.17-.05-.08-.15-.17-.13.14-.04.07-.19-.01-.26h.05c-.02-.08-.29-.16-.38-.22-.09-.06-.56-.16-.66-.1-.11.07.03.27.03.36.01.12-.11.15-.11.25 0 .16.31.13.23.36-.05.14-.23.16-.31.27-.08.1.01.28.09.34.07.06-.14.16-.17.18-.17.08-.29-.17-.33-.31-.03-.11-.04-.24-.16-.3-.06-.02-.24-.04-.28.01-.06-.14-.27-.2-.4-.25-.2-.07-.36-.07-.57-.04.07-.01-.02-.31-.18-.26.04-.1.02-.21.04-.31.02-.07.06-.15.12-.22.02-.04.24-.26.17-.27.16.02.35.03.49-.11.08-.09.12-.24.21-.33.13-.15.28.04.42.05.2.01.19-.21.08-.31.13.01.02-.22-.05-.25-.09-.03-.42.06-.24.13-.04-.02-.28.46-.41.22-.04-.05-.06-.25-.15-.26-.08 0-.13.08-.16.14.05-.12-.27-.21-.34-.22.15-.1.03-.21-.08-.27-.08-.04-.32-.08-.39 0-.18.22.2.25.3.31.02.02.14.09.07.13-.06.03-.23.08-.25.12-.06.09.07.19-.02.27-.09-.08-.09-.23-.16-.33.09.11-.35.05-.34.05-.14 0-.38.1-.49-.05-.02-.04-.02-.26.04-.21-.09-.07-.14-.14-.2-.18-.32.11-.63.25-.92.4.04.01.07.01.12-.01.07-.03.14-.08.22-.11.1-.04.3-.16.41-.07.01-.02.04-.04.05-.05.07.08.14.15.2.24-.08-.04-.21-.02-.3-.01-.07.02-.18.04-.21.12.03.05.07.13.05.18-.13-.09-.23-.24-.4-.26-.08 0-.16 0-.22.01-.94.52-1.73 1.27-2.29 2.17.04.04.07.07.11.08.1.03 0 .31.19.16.06.05.07.12.03.19.01-.01.4.24.43.26.07.06.17.13.2.21.02.07-.04.14-.09.17-.01-.02-.16-.16-.18-.12-.03.05 0 .31.11.3-.16.01-.09.62-.13.73 0 .01.02.01.02.01-.03.12.07.58.26.53-.12.03.23.48.28.51.12.09.27.14.36.27.1.14.1.34.23.45-.04.12.21.25.2.42-.02.01-.03.01-.05.02.05.14.23.14.3.26.04.08 0 .27.13.23.02-.22-.13-.43-.24-.61-.05-.1-.11-.18-.16-.28-.05-.09-.06-.2-.1-.29.04.01.25.08.23.11-.07.2.32.54.43.67.02.03.25.32.13.32.13 0 .3.19.36.29.09.15.07.33.13.49.06.2.33.28.49.37.13.07.25.17.39.22.2.07.25.01.43-.02.25-.04.28.24.49.35.12.07.4.16.53.11-.05.01.21.42.23.44.09.12.25.18.35.3.03-.02.06-.05.07-.09-.04.11.14.31.24.29.11-.02.14-.23.14-.31-.2.1-.37.02-.48-.18-.02-.04-.18-.32-.04-.32.19 0 .06-.14.04-.28-.02-.14-.16-.22-.22-.34-.06.12-.26.09-.32-.01 0 .03-.03.08-.03.12-.04 0-.09.01-.14-.01.02-.12.03-.27.06-.4.05-.17.37-.51-.05-.49-.15.01-.21.07-.26.19-.04.12-.03.23-.16.29-.09.03-.38.01-.47-.03-.19-.11-.31-.45-.31-.65-.01-.26.12-.5 0-.74.05-.05.11-.15.18-.2.06-.04.13.03.16-.08-.03-.02-.07-.06-.08-.06.15.07.42-.1.55 0 .08.06.16.08.21-.02.01-.03-.07-.15-.03-.23.03.17.14.2.29.09.05.06.21.04.32.1.11.07.12.17.25.03.08.12.09.12.12.23.03.11.09.38.19.43.2.13.15-.21.13-.33-.01-.01-.01-.33-.02-.33-.31-.07-.19-.31-.02-.48.03-.02.26-.1.35-.18.09-.07.2-.21.15-.34.05 0 .09-.04.11-.09-.03-.01-.15-.1-.17-.09.07-.04.06-.1.02-.16.1-.06.05-.17.15-.2.11.14.32-.02.21-.14.1-.14.33-.07.38-.2.15.04.04-.14.12-.25.07-.09.19-.09.27-.14 0 .01.25-.13.17-.14.17.02.5-.16.24-.31.04-.08-.08-.12-.17-.14.07-.02.15.02.21-.02.13-.09.04-.13-.07-.16-.13-.04-.31.05-.41.12-.08.06-.13.16-.23.18zm2.06 6.54c-.06-.06-.16-.04-.24-.08-.08-.03-.14-.06-.24-.08.02-.2-.19-.26-.33-.36-.13-.1-.2-.21-.39-.17-.02.01-.22.08-.18.12-.12-.11-.18-.17-.35-.22-.15-.04-.26-.24-.42-.06-.08.07-.04.19-.08.27-.12-.11.12-.23.02-.35-.11-.14-.32.09-.42.14-.05.05-.12.07-.16.13-.05.07-.07.16-.11.23-.03-.08-.19-.06-.2-.12.03.23.03.48.08.71.03.14 0 .36-.11.47-.12.11-.27.23-.29.39-.02.12.01.23.12.26.01.14-.16.25-.15.41 0 .01.01.1.02.15 1.34-.23 2.53-.9 3.43-1.84z" fill="#23272D"/></svg><svg height="15" viewBox="0 0 15 15" width="15" x="68" y="222"><path d="M11.79 5.45c0 3.01-2.64 5.44-5.9 5.44-.51 0-1-.06-1.47-.17-.7.63-1.48 1.09-2.33 1.36-.22.08-.47.13-.72.17h-.02c-.13 0-.25-.12-.27-.3-.03-.21.07-.33.17-.47.32-.47.69-.88.98-1.77C.87 8.71 0 7.17 0 5.45 0 2.44 2.64 0 5.89 0c3.26 0 5.9 2.44 5.9 5.45zm-10.72 0c0 1.17.62 2.29 1.69 3.08l.81.6-.29.89c.18-.13.35-.27.52-.41l.37-.33.44.1c.42.1.85.15 1.28.15 2.61 0 4.82-1.87 4.82-4.08 0-2.22-2.21-4.09-4.82-4.09-2.61 0-4.82 1.87-4.82 4.09zm12.68 8.75c.09.14.2.27.17.47-.03.19-.16.33-.29.31-.25-.04-.5-.1-.72-.17-.85-.28-1.63-.74-2.33-1.36-.47.1-.96.17-1.47.17-1.52 0-2.91-.54-3.95-1.41.24.02.49.04.73.04 1.8 0 3.5-.65 4.8-1.85 1.4-1.29 2.17-3.05 2.17-4.95 0-.56-.07-1.1-.2-1.62C14.08 4.82 15 6.39 15 8.17c0 1.73-.87 3.27-2.23 4.27.29.88.66 1.29.98 1.76z" fill="#23272D"/></svg><svg height="15" viewBox="0 0 15 15" width="15" x="84" y="222"><path d="M13.31 10.02c2.19-2.19 2.19-5.75 0-7.94-2.19-2.19-5.75-2.19-7.94 0-1.89 1.89-2.15 4.81-.77 6.98l-3.58 3.58c-.48.48-.48 1.25 0 1.73.47.48 1.25.48 1.72 0l3.59-3.59c2.17 1.38 5.09 1.13 6.98-.76zm-6.64-1.3c-1.48-1.47-1.48-3.87 0-5.35 1.47-1.47 3.87-1.47 5.35 0 1.47 1.48 1.47 3.88 0 5.35-1.48 1.48-3.88 1.48-5.35 0z" fill="#C7CDD1"/></svg><svg height="15" viewBox="0 0 15 15" width="15" x="100" y="222"><path d="M14.47 15H8.61c-.3 0-.53-.24-.53-.53V8.61c0-.3.23-.53.53-.53h5.86c.29 0 .53.23.53.53v5.86c0 .29-.24.53-.53.53zM14 9H9v5h5V9zm.47-2.08H8.61c-.3 0-.53-.23-.53-.53V.53c0-.29.23-.53.53-.53h5.86c.29 0 .53.24.53.53v5.86c0 .3-.24.53-.53.53zM14 1H9v5h5V1zM6.39 15H.53c-.29 0-.53-.24-.53-.53V8.61c0-.3.24-.53.53-.53h5.86c.3 0 .53.23.53.53v5.86c0 .29-.23.53-.53.53zM6 9H1v5h5V9zm.39-2.08H.53c-.29 0-.53-.23-.53-.53V.53C0 .24.24 0 .53 0h5.86c.3 0 .53.24.53.53v5.86c0 .3-.23.53-.53.53zM6 1H1v5h5V1z" fill="#23272D"/></svg><svg height="14" viewBox="0 0 12 14" width="12" x="230" y="117"><path d="M0 14V4h12v10H0zm11-9H1v8h10V5zM1 3s.45-1 1-1h8c.55 0 1 1 1 1H1zm1-2s.45-1 1-1h6c.55 0 1 1 1 1H2z" fill="#23272D"/></svg><svg height="12" viewBox="0 1 14 12" width="14" x="74" y="47"><path fill="#FFF" d="M11.65 1.99L5.31 8.32 2.35 5.37 0 7.71 5.31 13 14 4.33l-2.35-2.34z"/></svg><svg height="11" viewBox="0 0 14 11" width="14" x="116" y="222"><path d="M11.65-.01L5.31 6.32 2.35 3.37 0 5.71 5.31 11 14 2.33 11.65-.01z" fill="#61c3d5"/></svg><svg height="11" viewBox="0 0 14 11" width="14" x="131" y="222"><path d="M11.65-.01L5.31 6.32 2.35 3.37 0 5.71 5.31 11 14 2.33 11.65-.01z" fill="#23272D"/></svg><svg height="8" viewBox="0 0 14 8" width="14" x="146" y="222"><path d="M6.997 2.51c-.855 0-1.55.67-1.55 1.496 0 .825.694 1.495 1.55 1.495.854 0 1.547-.668 1.547-1.494 0-.825-.693-1.495-1.547-1.495z"/><path d="M13.837 3.49C12.368 1.412 9.91.04 7.12 0L6.996 0c-.04 0-.08 0-.122.002C4.085.042 1.628 1.41.16 3.485l.003.004C.06 3.635 0 3.814 0 4.005c0 .18.053.35.146.493.016.02.032.043.047.065C1.608 6.527 3.91 7.85 6.538 7.988c.15.008.305.012.46.012.152 0 .306-.004.458-.012 2.604-.138 4.888-1.437 6.305-3.37.045-.06.09-.12.13-.182.072-.13.11-.275.11-.43 0-.19-.06-.37-.163-.517zm-6.84 3.266c-1.573 0-2.85-1.23-2.85-2.75s1.277-2.75 2.85-2.75c1.572 0 2.848 1.232 2.848 2.75s-1.276 2.75-2.848 2.75z"/></svg><svg height="12.005" viewBox="0 0 13 13" width="12.005" x="243" y="1"><path d="M12.005 2.4L9.605 0 6.002 3.602 2.4 0 0 2.4l3.602 3.603L0 9.603l2.4 2.402 3.603-3.602 3.602 3.602 2.4-2.4-3.6-3.602 3.6-3.602z"/></svg><svg height="12" viewBox="0 0 12 12" width="12" x="243" y="15"><path id="path3357" d="M12 2.4L9.6 0 6 3.6 2.4 0 0 2.4 3.6 6 0 9.6 2.4 12 6 8.4 9.6 12 12 9.6 8.4 6 12 2.4z" fill="#61c3d5"/></svg><svg height="12" viewBox="0 0 12 12" width="12" x="243" y="28"><path d="M12 2.4L9.6 0 6 3.6 2.4 0 0 2.4 3.6 6 0 9.6 2.4 12 6 8.4 9.6 12 12 9.6 8.4 6 12 2.4z"/></svg><svg height="12" viewBox="0 0 12 12" width="12" x="243" y="41"><path d="M12 2.4L9.59-.01 5.99 3.6 2.39-.01-.01 2.4 3.59 6l-3.6 3.6 2.4 2.4 3.6-3.6 3.6 3.6L12 9.6 8.39 6 12 2.4z" fill="#A1A9AF"/></svg><svg height="12" viewBox="0 0 9 12" width="9" x="243" y="54"><path d="M3 11.66L.88 9.54 4.41 6 .88 2.46 3 .34 8.66 6 3 11.66z" fill="#23282d"/></svg><svg height="12" viewBox="0 0 9 12" width="9" x="243" y="67"><path d="M8.12 9.54L6 11.66.34 6 6 .34l2.12 2.12L4.59 6l3.53 3.54z" fill="#23282d"/></svg><svg height="10" viewBox="0 0 10 10" width="10" x="243" y="80"><filter filterUnits="objectBoundingBox" x="0" y="0" width="100" height="100" id="a"><feFlood flood-color="#ABADB5" result="coFloodOut1"/><feComposite in="coFloodOut1" in2="SourceAlpha" operator="in" result="coOverlay1"/><feBlend in="coOverlay1" in2="SourceGraphic" result="colorOverlay1"/></filter><g filter="url(#a)" fill="#838383"><path d="M5 9c2.21 0 4-1.79 4-4S7.21 1 5 1 1 2.79 1 5s1.79 4 4 4m0 1c-2.76 0-5-2.24-5-5s2.24-5 5-5 5 2.24 5 5-2.24 5-5 5z"/><path d="M5 6H4V3h1v3z"/><path d="M7 6H4V5h3v1z"/></g></svg><svg height="9" viewBox="0 0 6 9" width="6" x="243" y="91"><path d="M4.5 6l-3 3L0 7.5l3-3-3-3L1.5 0 6 4.5 4.5 6z" fill="#fff"/></svg><svg height="9" viewBox="0 0 6 9" width="6" x="243" y="101"><path d="M4.5 6l-3 3L0 7.5l3-3-3-3L1.5 0 6 4.5 4.5 6z" fill="#23272D"/></svg><svg height="8" viewBox="0 0 8 8" width="8" x="243" y="111"><path fill-rule="evenodd" clip-rule="evenodd" fill="#FFF" d="M5.307 4l2.558-2.558c.18-.18.18-.473 0-.653L7.21.134c-.18-.18-.472-.18-.652 0L4 2.693 1.442.135c-.18-.18-.473-.18-.653 0L.134.79c-.18.18-.18.472 0 .652L2.693 4 .135 6.558c-.18.18-.18.473 0 .653l.653.654c.18.18.473.18.653 0L4 5.307l2.558 2.558c.18.18.473.18.653 0l.654-.653c.18-.18.18-.473 0-.653L5.307 4z"/></svg><svg height="8" viewBox="0 0 5 8" width="5" x="250" y="91"><path d="M5 4L3.75 5.33 1.25 8 0 6.67 2.5 4 0 1.33 1.25 0l2.5 2.67L5 4z" fill="#C5CBCF"/></svg><svg height="8" viewBox="0 0 5 8" width="5" x="250" y="101"><path d="M1.25 8L0 6.67 2.5 4 0 1.33 1.25 0 5 4 1.25 8z" fill="#B1B9BD"/></svg><svg height="5" viewBox="0 0 8 5" width="8" x="243" y="120"><path d="M8 1.25l-2.67 2.5L4 5 2.67 3.75 0 1.25 1.33 0 4 2.5 6.67 0 8 1.25z" fill="#61c3d5"/></svg><svg height="5" viewBox="0 0 8 5" width="8" x="243" y="126"><path d="M8 1.25L4 5 2.67 3.75 0 1.25 1.33 0 4 2.5 6.67 0 8 1.25z" fill="#FFF"/></svg><svg height="5" viewBox="0 0 8 5" width="8" x="243" y="132"><path d="M6.67 5L4 2.5 1.33 5 0 3.75l2.67-2.5L4 0l4 3.75L6.67 5z" fill="#FFF"/></svg><svg height="5" viewBox="0 0 8 5" width="8" x="243" y="138"><path d="M8 3.75L6.67 5 4 2.5 1.33 5 0 3.75l2.67-2.5L4 0l1.33 1.25L8 3.75z" fill="#61c3d5"/></svg><svg height="5" viewBox="0 0 8 5" width="8" x="243" y="144"><path d="M8 1.25l-2.67 2.5L4 5 2.67 3.75 0 1.25 1.33 0 4 2.5 6.67 0 8 1.25z" fill="#FFF"/></svg><svg height="5" viewBox="0 0 8 5" width="8" x="243" y="150"><path fill-rule="evenodd" clip-rule="evenodd" fill="#A3ABB2" d="M8 1.25L6.667 0 4 2.5 1.333 0 0 1.25l2.667 2.5L4 5l1.334-1.25"/></svg><svg height="6" viewBox="0 0 6 6" width="6" x="243" y="156"><path d="M3.43 2.57L6 0v6H0l3.43-3.43z" fill="#ABB3B7"/></svg><svg height="6" viewBox="0 0 6 6" width="6" x="243" y="163"><path d="M3.43 2.57L6 0v6H0l3.43-3.43z" fill="#f75555"/></svg></svg>