<?xml version="1.0" encoding="utf-8"?>
<!-- Generator: Adobe Illustrator 17.0.0, SVG Export Plug-In . SVG Version: 6.00 Build 0)  -->
<!DOCTYPE svg PUBLIC "-//W3C//DTD SVG 1.1//EN" "http://www.w3.org/Graphics/SVG/1.1/DTD/svg11.dtd">
<svg version="1.1" id="Layer_2" xmlns="http://www.w3.org/2000/svg" xmlns:xlink="http://www.w3.org/1999/xlink" x="0px" y="0px"
	 width="142px" height="25px" viewBox="0 0 142 25" enable-background="new 0 0 142 25" xml:space="preserve">
<g>
	<path fill="#0099A8" d="M129.361,15.86c0.001-1.165-0.859-2.105-1.918-2.105h-15.697c-1.145-0.071-2.781-0.359-3.712-1.379
		c-1.534-1.685-1.446-2.805-0.461-3.541c0.845-0.631,2.38-1.807,2.38-1.807s1.579-0.895,2.261-2.86
		c0.536-1.55,0.064-5.43-2.146-3.756c-2.214,1.677-13.039,9.967-13.039,9.967c-3.731,2.819-3.539,7.556-3.539,7.556l0.004,0.001
		c-0.002,0.006-0.004,0.009-0.006,0.013v0.015h33.955C128.501,17.963,129.361,17.022,129.361,15.86"/>
	<g>
		<path fill="#0099A8" d="M0.465,24.042v-4.977h1.709c0.608,0,1.11,0.194,1.504,0.583s0.591,0.887,0.591,1.495v0.824
			c0,0.61-0.197,1.108-0.591,1.495c-0.394,0.386-0.896,0.579-1.504,0.579H0.465z M1.463,19.835v3.438h0.66
			c0.358,0,0.638-0.12,0.841-0.361s0.304-0.557,0.304-0.946v-0.829c0-0.385-0.102-0.698-0.304-0.939s-0.483-0.361-0.841-0.361H1.463
			z"/>
		<path fill="#0099A8" d="M7.936,21.854H5.875v1.418h2.41v0.77H4.877v-4.977h3.401v0.77H5.875v1.25h2.061V21.854z"/>
		<path fill="#0099A8" d="M11.408,22.743c0-0.191-0.068-0.346-0.203-0.461c-0.136-0.117-0.374-0.227-0.713-0.328
			c-0.592-0.172-1.04-0.374-1.343-0.609c-0.303-0.234-0.455-0.556-0.455-0.963c0-0.408,0.174-0.741,0.521-1
			c0.347-0.259,0.791-0.389,1.331-0.389c0.547,0,0.992,0.146,1.336,0.437c0.344,0.29,0.51,0.648,0.499,1.075l-0.007,0.02h-0.967
			c0-0.229-0.077-0.416-0.23-0.559c-0.154-0.143-0.37-0.213-0.648-0.213c-0.267,0-0.473,0.059-0.619,0.178
			c-0.146,0.118-0.219,0.27-0.219,0.454c0,0.169,0.078,0.307,0.234,0.415c0.156,0.108,0.425,0.223,0.808,0.344
			c0.549,0.152,0.965,0.354,1.248,0.605c0.283,0.25,0.424,0.579,0.424,0.987c0,0.426-0.168,0.763-0.504,1.009
			c-0.336,0.246-0.78,0.369-1.332,0.369c-0.542,0-1.015-0.14-1.418-0.419s-0.599-0.671-0.588-1.175l0.007-0.02h0.971
			c0,0.296,0.091,0.513,0.271,0.65c0.182,0.138,0.434,0.207,0.757,0.207c0.271,0,0.479-0.056,0.622-0.168
			C11.336,23.079,11.408,22.93,11.408,22.743z"/>
		<path fill="#0099A8" d="M14.046,24.042h-0.998v-4.977h0.998V24.042z"/>
		<path fill="#0099A8" d="M18.687,23.362c-0.148,0.195-0.379,0.37-0.692,0.522c-0.313,0.152-0.709,0.229-1.188,0.229
			c-0.608,0-1.105-0.189-1.49-0.568c-0.385-0.378-0.578-0.869-0.578-1.473v-1.039c0-0.602,0.185-1.092,0.555-1.472
			c0.371-0.379,0.847-0.569,1.431-0.569c0.606,0,1.07,0.148,1.393,0.443c0.323,0.295,0.487,0.683,0.494,1.164l-0.007,0.02h-0.94
			c-0.018-0.264-0.103-0.473-0.253-0.627c-0.15-0.153-0.37-0.23-0.66-0.23c-0.305,0-0.551,0.118-0.738,0.354s-0.28,0.539-0.28,0.91
			v1.045c0,0.378,0.097,0.685,0.291,0.92s0.455,0.354,0.783,0.354c0.232,0,0.419-0.023,0.561-0.071s0.249-0.107,0.321-0.178v-0.92
			h-0.882v-0.69h1.88V23.362z"/>
		<path fill="#0099A8" d="M23.393,24.042h-0.995l-2.01-3.4l-0.021,0.003v3.397H19.37v-4.977h0.998l2.01,3.397l0.021-0.003v-3.395
			h0.995V24.042z"/>
		<path fill="#0099A8" d="M27.209,21.854h-2.061v1.418h2.41v0.77h-3.408v-4.977h3.4v0.77h-2.402v1.25h2.061V21.854z"/>
		<path fill="#0099A8" d="M27.996,24.042v-4.977h1.709c0.608,0,1.109,0.194,1.504,0.583s0.592,0.887,0.592,1.495v0.824
			c0,0.61-0.197,1.108-0.592,1.495c-0.395,0.386-0.896,0.579-1.504,0.579H27.996z M28.994,19.835v3.438h0.66
			c0.357,0,0.638-0.12,0.84-0.361c0.203-0.241,0.305-0.557,0.305-0.946v-0.829c0-0.385-0.102-0.698-0.305-0.939
			c-0.202-0.241-0.482-0.361-0.84-0.361H28.994z"/>
		<path fill="#0099A8" d="M36.645,22.969h-1.747l-0.339,1.073h-1.008l1.713-4.977h1.021l1.705,4.977h-1.008L36.645,22.969z
			 M35.144,22.187h1.255l-0.615-1.955h-0.021L35.144,22.187z"/>
		<path fill="#0099A8" d="M42.305,24.042H41.31l-2.01-3.4l-0.021,0.003v3.397h-0.998v-4.977h0.998l2.01,3.397l0.021-0.003v-3.395
			h0.995V24.042z"/>
		<path fill="#0099A8" d="M43.062,24.042v-4.977h1.709c0.608,0,1.109,0.194,1.504,0.583s0.592,0.887,0.592,1.495v0.824
			c0,0.61-0.197,1.108-0.592,1.495c-0.395,0.386-0.896,0.579-1.504,0.579H43.062z M44.06,19.835v3.438h0.66
			c0.357,0,0.638-0.12,0.84-0.361c0.203-0.241,0.305-0.557,0.305-0.946v-0.829c0-0.385-0.102-0.698-0.305-0.939
			c-0.202-0.241-0.482-0.361-0.84-0.361H44.06z"/>
		<path fill="#0099A8" d="M50.041,22.237v1.805h-0.998v-4.977h1.982c0.572,0,1.021,0.146,1.35,0.438s0.492,0.676,0.492,1.152
			c0,0.476-0.164,0.858-0.492,1.148c-0.328,0.289-0.777,0.434-1.35,0.434H50.041z M50.041,21.468h0.984
			c0.278,0,0.488-0.075,0.633-0.227c0.143-0.151,0.215-0.345,0.215-0.58c0-0.238-0.071-0.437-0.214-0.593s-0.354-0.233-0.634-0.233
			h-0.984V21.468z"/>
		<path fill="#0099A8" d="M57.429,22.001c0,0.611-0.192,1.116-0.579,1.515c-0.386,0.398-0.888,0.599-1.505,0.599
			c-0.613,0-1.111-0.2-1.494-0.599s-0.574-0.903-0.574-1.515v-0.895c0-0.609,0.19-1.113,0.572-1.513
			c0.382-0.4,0.879-0.601,1.492-0.601c0.617,0,1.12,0.2,1.508,0.601c0.387,0.399,0.58,0.903,0.58,1.513V22.001z M56.431,21.102
			c0-0.388-0.097-0.706-0.29-0.955s-0.46-0.374-0.8-0.374s-0.603,0.124-0.789,0.372c-0.188,0.248-0.281,0.566-0.281,0.957v0.904
			c0,0.395,0.095,0.717,0.284,0.966s0.452,0.373,0.79,0.373c0.342,0,0.607-0.124,0.799-0.373s0.287-0.571,0.287-0.966V21.102z"/>
		<path fill="#0099A8" d="M61.971,22.477h0.021l0.711-3.411h0.974l-1.162,4.977h-0.926l-0.912-3.285h-0.021l-0.912,3.285h-0.926
			l-1.166-4.977h0.978l0.714,3.408l0.021,0.003l0.933-3.411h0.735L61.971,22.477z"/>
		<path fill="#0099A8" d="M67.121,21.854H65.06v1.418h2.41v0.77h-3.408v-4.977h3.4v0.77H65.06v1.25h2.061V21.854z"/>
		<path fill="#0099A8" d="M68.905,22.053v1.989h-0.998v-4.977h1.877c0.566,0,1.011,0.129,1.331,0.388s0.479,0.619,0.479,1.082
			c0,0.258-0.066,0.479-0.201,0.663s-0.332,0.334-0.592,0.447c0.295,0.087,0.506,0.231,0.635,0.435s0.193,0.453,0.193,0.752v0.366
			c0,0.139,0.019,0.284,0.056,0.436c0.038,0.151,0.103,0.264,0.193,0.336v0.072H70.85c-0.092-0.073-0.15-0.195-0.178-0.365
			c-0.027-0.172-0.041-0.333-0.041-0.486v-0.352c0-0.248-0.068-0.441-0.204-0.579s-0.326-0.207-0.572-0.207H68.905z M68.905,21.284
			h0.861c0.28,0,0.489-0.06,0.627-0.178c0.138-0.119,0.207-0.295,0.207-0.527c0-0.228-0.069-0.408-0.207-0.543
			s-0.341-0.201-0.609-0.201h-0.879V21.284z"/>
		<path fill="#0099A8" d="M75.418,21.854h-2.061v1.418h2.41v0.77h-3.408v-4.977h3.4v0.77h-2.402v1.25h2.061V21.854z"/>
		<path fill="#0099A8" d="M76.205,24.042v-4.977h1.709c0.607,0,1.109,0.194,1.504,0.583s0.592,0.887,0.592,1.495v0.824
			c0,0.61-0.197,1.108-0.592,1.495c-0.395,0.386-0.896,0.579-1.504,0.579H76.205z M77.203,19.835v3.438h0.66
			c0.357,0,0.637-0.12,0.84-0.361s0.305-0.557,0.305-0.946v-0.829c0-0.385-0.102-0.698-0.305-0.939s-0.482-0.361-0.84-0.361H77.203z
			"/>
		<path fill="#0099A8" d="M82.184,24.042v-4.977h1.682c0.586,0,1.043,0.114,1.371,0.342s0.492,0.568,0.492,1.021
			c0,0.23-0.061,0.437-0.184,0.617c-0.121,0.182-0.299,0.317-0.531,0.408c0.299,0.064,0.523,0.201,0.672,0.41
			c0.15,0.21,0.225,0.453,0.225,0.729c0,0.477-0.158,0.837-0.473,1.082s-0.76,0.367-1.336,0.367H82.184z M83.182,21.15H83.9
			c0.266,0,0.471-0.055,0.615-0.164c0.143-0.109,0.215-0.269,0.215-0.479c0-0.23-0.072-0.399-0.217-0.509s-0.361-0.164-0.648-0.164
			h-0.684V21.15z M83.182,21.841v1.432h0.92c0.264,0,0.467-0.057,0.605-0.172c0.139-0.114,0.207-0.284,0.207-0.51
			c0-0.243-0.059-0.429-0.178-0.558c-0.117-0.128-0.305-0.192-0.561-0.192H83.182z"/>
		<path fill="#0099A8" d="M87.789,21.358h0.021l1.086-2.293h1.094l-1.709,3.227v1.75h-0.994v-1.801l-1.678-3.176h1.094
			L87.789,21.358z"/>
	</g>
	<path fill="#CF0A2C" d="M96.053,24.042c-0.036-0.084-0.067-0.173-0.094-0.267c-0.025-0.094-0.045-0.189-0.057-0.287
		c-0.102,0.18-0.237,0.329-0.404,0.448c-0.168,0.118-0.367,0.178-0.6,0.178c-0.388,0-0.687-0.101-0.896-0.3
		c-0.209-0.199-0.314-0.471-0.314-0.815c0-0.361,0.141-0.643,0.419-0.842c0.279-0.199,0.687-0.299,1.222-0.299h0.558v-0.295
		c0-0.178-0.047-0.315-0.14-0.413c-0.094-0.098-0.232-0.147-0.414-0.147c-0.162,0-0.287,0.04-0.374,0.118
		c-0.088,0.079-0.132,0.188-0.132,0.327l-0.964-0.004l-0.003-0.021c-0.017-0.313,0.119-0.582,0.406-0.809s0.664-0.34,1.131-0.34
		c0.442,0,0.801,0.112,1.077,0.337s0.413,0.544,0.413,0.959v1.527c0,0.173,0.014,0.336,0.04,0.488
		c0.026,0.153,0.067,0.305,0.124,0.455H96.053z M95.141,23.376c0.176,0,0.332-0.044,0.469-0.131
		c0.137-0.086,0.229-0.187,0.276-0.301v-0.522h-0.558c-0.211,0-0.372,0.053-0.481,0.159c-0.109,0.105-0.164,0.234-0.164,0.385
		c0,0.123,0.041,0.222,0.123,0.297S95,23.376,95.141,23.376z"/>
	<path fill="#CF0A2C" d="M97.488,22.224c0-0.583,0.127-1.054,0.378-1.412c0.252-0.357,0.606-0.536,1.065-0.536
		c0.184,0,0.351,0.04,0.498,0.12c0.148,0.079,0.278,0.193,0.391,0.342V18.71h1.001v5.332h-0.858l-0.082-0.451
		c-0.115,0.171-0.253,0.301-0.411,0.39c-0.159,0.089-0.341,0.134-0.546,0.134c-0.453,0-0.806-0.167-1.058-0.5
		c-0.251-0.332-0.378-0.771-0.378-1.318V22.224z M98.483,22.296c0,0.325,0.055,0.582,0.164,0.769s0.287,0.28,0.533,0.28
		c0.144,0,0.269-0.029,0.376-0.088s0.195-0.144,0.264-0.256v-1.585c-0.068-0.117-0.156-0.208-0.262-0.273
		c-0.106-0.065-0.23-0.099-0.371-0.099c-0.244,0-0.422,0.109-0.535,0.327c-0.112,0.218-0.169,0.502-0.169,0.853V22.296z"/>
	<path fill="#0099A8" d="M104.759,21.974h-2.085v2.068h-0.998v-4.977h3.432v0.77h-2.434v1.37h2.085V21.974z"/>
	<path fill="#0099A8" d="M106.775,24.042h-0.998v-4.977h0.998V24.042z"/>
	<path fill="#0099A8" d="M111.793,24.042h-0.994l-2.01-3.4l-0.021,0.003v3.397h-0.998v-4.977h0.998l2.01,3.397l0.021-0.003v-3.395
		h0.994V24.042z"/>
	<path fill="#0099A8" d="M116.547,23.362c-0.147,0.195-0.379,0.37-0.691,0.522c-0.313,0.152-0.709,0.229-1.188,0.229
		c-0.609,0-1.105-0.189-1.49-0.568c-0.386-0.378-0.578-0.869-0.578-1.473v-1.039c0-0.602,0.186-1.092,0.555-1.472
		c0.371-0.379,0.848-0.569,1.432-0.569c0.605,0,1.07,0.148,1.393,0.443s0.486,0.683,0.494,1.164l-0.008,0.02h-0.939
		c-0.018-0.264-0.103-0.473-0.253-0.627c-0.15-0.153-0.37-0.23-0.659-0.23c-0.306,0-0.552,0.118-0.738,0.354
		c-0.188,0.235-0.281,0.539-0.281,0.91v1.045c0,0.378,0.098,0.685,0.291,0.92s0.455,0.354,0.783,0.354
		c0.232,0,0.419-0.023,0.561-0.071c0.141-0.048,0.248-0.107,0.32-0.178v-0.92h-0.881v-0.69h1.879V23.362z"/>
	<path fill="#0099A8" d="M120.463,21.854h-2.06v1.418h2.409v0.77h-3.407v-4.977h3.399v0.77h-2.401v1.25h2.06V21.854z"/>
	<path fill="#0099A8" d="M122.422,22.053v1.989h-0.998v-4.977h1.877c0.566,0,1.012,0.129,1.332,0.388s0.479,0.619,0.479,1.082
		c0,0.258-0.066,0.479-0.201,0.663s-0.332,0.334-0.592,0.447c0.295,0.087,0.506,0.231,0.635,0.435s0.193,0.453,0.193,0.752v0.366
		c0,0.139,0.02,0.284,0.057,0.436s0.102,0.264,0.193,0.336v0.072h-1.029c-0.092-0.073-0.15-0.195-0.178-0.365
		c-0.027-0.172-0.041-0.333-0.041-0.486v-0.352c0-0.248-0.068-0.441-0.203-0.579c-0.137-0.138-0.326-0.207-0.572-0.207H122.422z
		 M122.422,21.284h0.861c0.281,0,0.49-0.06,0.627-0.178c0.139-0.119,0.207-0.295,0.207-0.527c0-0.228-0.068-0.408-0.207-0.543
		c-0.137-0.135-0.34-0.201-0.609-0.201h-0.879V21.284z"/>
	<path fill="#0099A8" d="M128.74,22.743c0-0.191-0.068-0.346-0.203-0.461c-0.137-0.117-0.373-0.227-0.713-0.328
		c-0.594-0.172-1.041-0.374-1.344-0.609c-0.303-0.234-0.455-0.556-0.455-0.963c0-0.408,0.174-0.741,0.521-1s0.791-0.389,1.332-0.389
		c0.547,0,0.992,0.146,1.336,0.437c0.344,0.29,0.51,0.648,0.498,1.075l-0.006,0.02h-0.967c0-0.229-0.078-0.416-0.23-0.559
		c-0.154-0.143-0.371-0.213-0.648-0.213c-0.268,0-0.473,0.059-0.619,0.178c-0.145,0.118-0.219,0.27-0.219,0.454
		c0,0.169,0.078,0.307,0.234,0.415s0.426,0.223,0.809,0.344c0.549,0.152,0.965,0.354,1.248,0.605
		c0.281,0.25,0.424,0.579,0.424,0.987c0,0.426-0.168,0.763-0.504,1.009s-0.781,0.369-1.332,0.369c-0.543,0-1.016-0.14-1.418-0.419
		c-0.404-0.279-0.6-0.671-0.588-1.175l0.006-0.02h0.971c0,0.296,0.092,0.513,0.271,0.65c0.182,0.138,0.434,0.207,0.758,0.207
		c0.271,0,0.479-0.056,0.621-0.168C128.668,23.079,128.74,22.93,128.74,22.743z"/>
</g>
<rect y="24" fill="#CF0A2C" width="142" height="1"/>
</svg>
