<svg version="1.1" id="Layer_1" xmlns="http://www.w3.org/2000/svg" xmlns:xlink="http://www.w3.org/1999/xlink" x="0px" y="0px"
     width="154px" height="154px" viewBox="0 0 154 154" enable-background="new 0 0 154 154" xml:space="preserve">
<g opacity="1">
    <path fill="#50e469" d="M77,134.5c-31.706,0-57.5-25.794-57.5-57.5c0-31.706,25.794-57.5,57.5-57.5c4.344,0,8.571,0.5,12.643,1.418
        l1.32-5.852C86.466,14.052,81.798,13.5,77,13.5c-35.014,0-63.5,28.486-63.5,63.5c0,35.014,28.486,63.5,63.5,63.5
        c2.733,0,5.421-0.193,8.064-0.53l-0.754-5.951C81.914,134.325,79.478,134.5,77,134.5z"/>
    <path fill="#50e469" d="M134.12,70.482c0.243,2.141,0.38,4.313,0.38,6.518c0,8.391-1.822,16.36-5.066,23.554l5.46,2.481
        c3.59-7.951,5.606-16.76,5.606-26.036c0-2.426-0.15-4.817-0.416-7.173L134.12,70.482z"/>
</g>
</svg>
