<svg version="1.1" id="Layer_1" xmlns="http://www.w3.org/2000/svg" xmlns:xlink="http://www.w3.org/1999/xlink" x="0px" y="0px"
	 width="154px" height="154px" viewBox="0 0 154 154" enable-background="new 0 0 154 154" xml:space="preserve">
<g opacity="1">
	<path fill="#FFE13E" d="M25.755,134.407l5.977-6.721C17.794,115.225,9,97.123,9,77c0-16.295,5.767-31.266,15.36-42.991
		l-6.986-5.666C6.523,41.616,0,58.559,0,77C0,99.794,9.964,120.296,25.755,134.407z"/>
	<path fill="#FFE13E" d="M77,0c-1.22,0-2.432,0.036-3.638,0.092l0.433,8.989C74.857,9.032,75.925,9,77,9c37.495,0,68,30.505,68,68
		s-30.505,68-68,68c-2.731,0-5.419-0.18-8.067-0.495l-1.092,8.931C70.847,153.794,73.899,154,77,154c42.458,0,77-34.542,77-77
		S119.458,0,77,0z"/>
</g>
</svg>
