<?xml version="1.0" encoding="utf-8"?>
<svg xmlns="http://www.w3.org/2000/svg"
	xmlns:xlink="http://www.w3.org/1999/xlink"
	width="33px" height="48px" viewBox="0 0 33 48">
<path fillRule="evenodd" d="M 32.83 36.47C 32.83 36.47 28.38 43.17 28.38 43.17 28.38 43.17 28.38 46.96 28.38 46.96 28.38 47.53 27.91 48 27.34 48 26.76 48 26.29 47.53 26.29 46.96 26.29 46.96 26.29 42.86 26.29 42.86 26.29 42.65 26.35 42.45 26.46 42.28 26.46 42.28 30.91 35.59 30.91 35.59 30.91 35.59 30.91 18.79 30.91 18.79 30.91 18.79 27.19 17.71 27.19 17.71 27.19 17.71 27.19 24.48 27.19 24.48 27.19 25.05 26.72 25.52 26.15 25.52 25.57 25.52 25.1 25.05 25.1 24.48 25.1 24.48 25.1 17.09 25.1 17.09 25.1 17.09 21.39 16.01 21.39 16.01 21.39 16.01 21.39 22.78 21.39 22.78 21.39 23.36 20.92 23.82 20.34 23.82 19.76 23.82 19.29 23.36 19.29 22.78 19.29 22.78 19.29 15.4 19.29 15.4 19.29 15.4 15.58 14.31 15.58 14.31 15.58 14.31 15.58 21.08 15.58 21.08 15.58 21.66 15.11 22.12 14.53 22.12 13.96 22.12 13.49 21.66 13.49 21.08 13.49 21.08 13.49 4.52 13.49 4.52 13.49 3.17 12.39 2.08 11.03 2.08 9.68 2.08 8.58 3.17 8.58 4.52 8.58 4.52 8.58 27.3 8.58 27.3 8.58 27.87 8.11 28.34 7.54 28.34 6.96 28.34 6.49 27.87 6.49 27.3 6.49 27.3 6.49 22.12 6.49 22.12 6.49 22.12 6.37 22.12 6.37 22.12 4.08 22.12 2.22 23.98 2.22 26.26 2.22 26.26 2.22 35.51 2.22 35.51 2.22 35.51 7.98 42.18 7.98 42.18 8.14 42.37 8.23 42.61 8.23 42.86 8.23 42.86 8.23 46.96 8.23 46.96 8.23 47.53 7.76 48 7.19 48 6.61 48 6.14 47.53 6.14 46.96 6.14 46.96 6.14 43.24 6.14 43.24 6.14 43.24 0.38 36.58 0.38 36.58 0.34 36.54 0.33 36.49 0.3 36.45 0.26 36.39 0.22 36.33 0.2 36.26 0.17 36.19 0.16 36.12 0.15 36.04 0.15 35.99 0.12 35.95 0.12 35.9 0.12 35.9 0.12 26.26 0.12 26.26 0.12 22.83 2.93 20.04 6.37 20.04 6.37 20.04 6.49 20.04 6.49 20.04 6.49 20.04 6.49 4.52 6.49 4.52 6.49 2.03 8.53-0 11.03-0 13.54-0 15.58 2.03 15.58 4.52 15.58 4.52 15.58 12.14 15.58 12.14 15.58 12.14 32.25 17.02 32.25 17.02 32.69 17.15 33 17.55 33 18.02 33 18.02 33 35.9 33 35.9 33 36.1 32.94 36.3 32.83 36.47Z" fill="rgb(253,237,0)"/></svg>