<?xml version="1.0" encoding="utf-8"?>
<svg xmlns="http://www.w3.org/2000/svg"
	xmlns:xlink="http://www.w3.org/1999/xlink"
	width="27px" height="19px" viewBox="0 0 27 19">
<path fillRule="evenodd" d="M 1 18.22C 0.45 18.22-0 17.77-0 17.22-0 17.22-0 12.95-0 12.95-0 5.8 5.85-0.02 13.04-0.02 20.23-0.02 26.08 5.8 26.08 12.95 26.08 12.95 26.08 16.36 26.08 16.36 26.08 16.91 25.64 17.36 25.08 17.36 24.53 17.36 24.08 16.91 24.08 16.36 24.08 16.36 24.08 12.95 24.08 12.95 24.08 6.9 19.13 1.97 13.04 1.97 6.95 1.97 2 6.9 2 12.95 2 12.95 2 17.22 2 17.22 2 17.77 1.55 18.22 1 18.22Z" fill="rgb(95,195,213)"/></svg>