<?xml version="1.0" encoding="utf-8"?>
<!-- Generator: Adobe Illustrator 17.0.0, SVG Export Plug-In . SVG Version: 6.00 Build 0)  -->
<!DOCTYPE svg PUBLIC "-//W3C//DTD SVG 1.1//EN" "http://www.w3.org/Graphics/SVG/1.1/DTD/svg11.dtd">
<svg version="1.1" id="Layer_1" xmlns="http://www.w3.org/2000/svg" xmlns:xlink="http://www.w3.org/1999/xlink" x="0px" y="0px"
     width="48px" height="74px" viewBox="0 0 48 74" enable-background="new 0 0 48 74" xml:space="preserve">
<g>
    <g>
        <path fill="#60C3D6" d="M10.385,17.247c0.209,0.349,0.579,0.543,0.959,0.544c0.196,0,0.394-0.05,0.575-0.158
            c0.53-0.316,0.703-1.002,0.386-1.531l-3.647-4.815c0.092,0.024,0.187,0.042,0.286,0.042l11.184,0.02
            c0.618,0.001,1.119-0.498,1.121-1.114c0.001-0.617-0.499-1.117-1.116-1.118L8.949,9.096c-0.1,0-0.194,0.017-0.286,0.041
            l3.318-4.802c0.319-0.528,0.148-1.214-0.381-1.532c-0.529-0.319-1.217-0.148-1.535,0.38L5.752,9.632
            c-0.213,0.353-0.214,0.795-0.002,1.149L10.385,17.247z"/>
        <path fill="#60C3D6" d="M47.842,10.781c0.212-0.354,0.211-0.796-0.002-1.149l-4.312-6.449c-0.319-0.528-1.006-0.699-1.535-0.38
            c-0.529,0.318-0.699,1.004-0.381,1.532l3.318,4.802c-0.092-0.024-0.187-0.041-0.286-0.041l-11.185,0.02
            c-0.618,0.001-1.117,0.502-1.116,1.118c0.001,0.617,0.503,1.115,1.121,1.114l11.184-0.02c0.1,0,0.194-0.018,0.286-0.042
            l-3.647,4.815c-0.317,0.529-0.144,1.215,0.386,1.531c0.18,0.108,0.379,0.159,0.575,0.158c0.38,0,0.75-0.194,0.959-0.544
            L47.842,10.781z"/>
    </g>
</g>
</svg>
