<?xml version="1.0" encoding="utf-8"?>
<!-- Generator: Adobe Illustrator 17.0.0, SVG Export Plug-In . SVG Version: 6.00 Build 0)  -->
<!DOCTYPE svg PUBLIC "-//W3C//DTD SVG 1.1//EN" "http://www.w3.org/Graphics/SVG/1.1/DTD/svg11.dtd">
<svg version="1.1" id="Layer_1" xmlns="http://www.w3.org/2000/svg" xmlns:xlink="http://www.w3.org/1999/xlink" x="0px" y="0px"
     width="48px" height="58px" viewBox="0 0 48 74" enable-background="new 0 0 48 58" xml:space="preserve">
<g>
    <path fill="#FFE13E" d="M42.325,41.189l-4.867-1.511l0.221-14.463c0.038-2.462-1.938-4.495-4.405-4.533
        c-0.827-0.013-1.604,0.205-2.275,0.587c-0.01-2.423-1.964-4.41-4.402-4.447c-2.467-0.038-4.504,1.934-4.542,4.395l-0.011,0.652
        c-0.677-0.421-1.471-0.674-2.325-0.687c-2.508-0.038-4.579,1.967-4.618,4.495c0.001,0.163,0.11,16.238,0.03,21.726
        c-0.166,1.064-1.114,1.812-2.174,1.761l-2.415-2.875c-1.84-2.204-5.134-2.503-7.343-0.666l-0.582,0.484
        c-1.07,0.89-1.728,2.143-1.854,3.527c-0.126,1.384,0.296,2.735,1.188,3.802l6.157,7.373c0.01,0.014,0.017,0.029,0.028,0.042
        l6.032,7.221l-0.061,3.975c-0.009,0.616,0.483,1.124,1.101,1.133c0.618,0.009,1.126-0.483,1.135-1.099l0.067-4.389
        c0.004-0.267-0.088-0.527-0.259-0.732l-2.878-3.446c-0.008-0.01-0.012-0.021-0.02-0.03L3.671,52.007
        c-1.051-1.259-0.88-3.136,0.38-4.184l0.582-0.484c1.26-1.051,3.141-0.879,4.194,0.381l2.669,3.179
        c0.03,0.036,0.101,0.106,0.136,0.138c0.165,0.153,0.372,0.252,0.595,0.285l0.193,0.029c2.318,0.354,4.492-1.216,4.903-3.508l0,0
        l0,0c0.003-0.016,0.017-22.017,0.016-22.156c0.02-1.272,1.073-2.291,2.347-2.272c1.274,0.019,2.296,1.071,2.276,2.343
        l-0.266,17.382c-0.001,0.044,0.007,0.086,0.011,0.128c0.003,0.032,0.002,0.065,0.008,0.096c0.006,0.032,0.018,0.062,0.027,0.093
        c0.011,0.04,0.019,0.081,0.035,0.118c0.008,0.019,0.02,0.036,0.028,0.054c0.022,0.047,0.044,0.094,0.072,0.137
        c0.01,0.015,0.023,0.028,0.034,0.043c0.031,0.043,0.063,0.086,0.1,0.125c0.008,0.009,0.019,0.016,0.028,0.024
        c0.043,0.041,0.087,0.081,0.135,0.115c0.011,0.008,0.024,0.013,0.036,0.02c0.049,0.031,0.099,0.062,0.152,0.086
        c0.038,0.017,0.079,0.027,0.119,0.039c0.03,0.009,0.059,0.022,0.09,0.029c0.038,0.008,0.078,0.009,0.118,0.014
        c0.036,0.004,0.07,0.012,0.107,0.012l0.001,0c0.077,0.001,0.153-0.005,0.226-0.019c0.053-0.01,0.103-0.028,0.153-0.045
        c0.019-0.006,0.039-0.009,0.057-0.017c0.066-0.027,0.129-0.06,0.189-0.099c0.001-0.001,0.002-0.001,0.003-0.001
        c0.058-0.038,0.112-0.082,0.162-0.129c0.002-0.002,0.004-0.003,0.005-0.004c0.047-0.045,0.088-0.096,0.126-0.148
        c0.004-0.005,0.009-0.009,0.013-0.015c0.028-0.04,0.049-0.084,0.072-0.127c0.011-0.021,0.025-0.04,0.035-0.061
        c0.013-0.03,0.02-0.063,0.031-0.094c0.013-0.038,0.029-0.075,0.038-0.115c0.007-0.03,0.007-0.062,0.011-0.092
        c0.006-0.044,0.015-0.086,0.015-0.131l0.36-21.923c0.019-1.231,1.038-2.217,2.271-2.198c1.233,0.019,2.221,1.036,2.203,2.267
        L28.43,43.242c-0.009,0.616,0.483,1.124,1.101,1.133c0.618,0.009,1.126-0.483,1.135-1.099l0.011-0.743l0.291-17.422
        c0.019-1.231,1.037-2.217,2.271-2.198c1.233,0.019,2.221,1.036,2.202,2.267l-0.366,23.883c-0.009,0.616,0.483,1.124,1.101,1.133
        c0.618,0.01,1.126-0.483,1.135-1.099l0.109-7.093l3.439,1.068l-0.264,17.211l-4.845,7.089c-0.123,0.181-0.191,0.393-0.194,0.612
        l-0.067,4.389c-0.009,0.616,0.483,1.124,1.101,1.133c0.618,0.009,1.126-0.483,1.135-1.099l0.062-4.054l4.846-7.089
        c0.123-0.181,0.191-0.393,0.194-0.612l0.281-18.381C43.119,41.777,42.799,41.336,42.325,41.189z"/>
</g>
</svg>
