<?xml version="1.0" encoding="utf-8"?>
<!-- Generator: Adobe Illustrator 17.0.0, SVG Export Plug-In . SVG Version: 6.00 Build 0)  -->
<!DOCTYPE svg PUBLIC "-//W3C//DTD SVG 1.1//EN" "http://www.w3.org/Graphics/SVG/1.1/DTD/svg11.dtd">
<svg version="1.1" id="Layer_1" xmlns="http://www.w3.org/2000/svg" xmlns:xlink="http://www.w3.org/1999/xlink" x="0px" y="0px"
	 width="87px" height="45px" viewBox="0 0 87 45" enable-background="new 0 0 87 45" xml:space="preserve">
<path fill="#FEED00" d="M7.036,21.127c0.005,5.422,4.363,9.825,9.746,9.825c0.619,0,1.22-0.062,1.808-0.173
	c1.398-0.266,2.313-1.611,2.055-3.027c-0.259-1.405-1.599-2.332-3.004-2.071c-0.274,0.058-0.561,0.09-0.858,0.09
	c-2.541-0.008-4.599-2.083-4.601-4.645c0.002-2.565,2.06-4.644,4.601-4.658c2.547,0.013,4.606,2.092,4.614,4.658v7.232
	c0,1.428,1.15,2.591,2.568,2.591c1.417,0,2.565-1.162,2.565-2.591v-7.232c0-5.429-4.36-9.836-9.747-9.836
	C11.399,11.291,7.042,15.699,7.036,21.127"/>
<path fill="#FEED00" d="M48.937,21.127c0,5.422,4.356,9.825,9.743,9.825c0.614,0,1.224-0.062,1.813-0.173
	c1.387-0.266,2.305-1.625,2.048-3.027c-0.265-1.405-1.603-2.332-3.003-2.071c-0.279,0.058-0.552,0.09-0.857,0.09
	c-2.543-0.008-4.602-2.083-4.607-4.645c0.006-2.565,2.064-4.64,4.607-4.658c2.543,0.017,4.597,2.092,4.608,4.658v7.221
	c0,1.438,1.147,2.603,2.571,2.603c1.422,0,2.569-1.166,2.569-2.603v-7.221c0-5.429-4.357-9.833-9.748-9.836
	C53.293,11.295,48.937,15.699,48.937,21.127"/>
<path fill="#FEED00" d="M27.985,21.121c0,5.426,4.358,9.825,9.754,9.83c5.384-0.006,9.735-4.403,9.746-9.83
	c-0.01-5.432-4.362-9.83-9.746-9.83c-0.626,0-1.221,0.057-1.822,0.17c-1.387,0.266-2.31,1.62-2.042,3.028
	c0.256,1.412,1.603,2.336,3,2.075c0.274-0.058,0.557-0.083,0.863-0.083c2.533,0.003,4.599,2.082,4.604,4.642
	c-0.005,2.563-2.071,4.634-4.604,4.642c-2.548-0.008-4.61-2.079-4.614-4.642V4.411c0-1.433-1.148-2.599-2.577-2.599
	c-1.416,0-2.563,1.166-2.563,2.599L27.985,21.121"/>
<path fill="#FEED00" d="M0.009,28.359c0,1.428,1.156,2.595,2.575,2.595s2.564-1.166,2.564-2.595V4.448
	c0-1.436-1.145-2.603-2.564-2.603c-1.42-0.001-2.575,1.167-2.575,2.603V28.359"/>
<path fill="#FEED00" d="M83.373,17.755c-0.32-0.21-0.829-0.445-1.476-0.719c-1.88-0.828-4.554-1.621-5.319-2.176
	c-0.399-0.294-0.563-0.607-0.64-0.964c-0.004-0.031-0.004-0.048-0.012-0.077c0-0.023-0.004-0.051-0.01-0.072
	c-0.256-1.42-1.485-2.475-2.966-2.475c-1.337,0-2.463,0.852-2.86,2.069c-0.08,0.253-0.125,0.509-0.146,0.782v0.058
	c-0.076,0.985,0.073,3.849,4.575,5.532l3.458,1.353c1.878,0.678,2.577,1.525,2.651,2.503c-0.008,0.57-0.188,0.956-0.568,1.312
	c-0.386,0.353-1.049,0.674-2.139,0.674c-1.296-0.008-1.919-0.345-2.299-0.737c-0.38-0.389-0.717-1.031-0.739-2.313
	c-0.06-1.426-1.235-2.573-2.676-2.573c-1.291,0-2.354,0.924-2.614,2.145c0,0-0.054,0.303-0.054,0.554v0.086v0.068
	c0.072,2.198,0.782,4.29,2.263,5.811c1.551,1.606,3.765,2.355,6.047,2.355h0.073c2.203,0,4.235-0.72,5.714-2.062
	c1.349-1.214,2.177-2.946,2.311-4.764c0.042-0.398,0.062-0.816,0.062-1.282C85.995,20.61,85.128,18.918,83.373,17.755"/>
<path fill="#FEED00" d="M83.341,10.56c-1.463,0-2.655,1.203-2.655,2.682c0,1.472,1.193,2.668,2.655,2.668
	c1.461,0,2.657-1.197,2.657-2.668C85.997,11.763,84.802,10.56,83.341,10.56z M83.348,14.558c-0.725,0-1.315-0.594-1.315-1.317
	c0-0.731,0.591-1.322,1.315-1.322c0.713,0,1.297,0.593,1.297,1.322C84.647,13.965,84.063,14.558,83.348,14.558z"/>
<g>
	<g>
		<path fill="#FEED00" d="M0.337,34.9c0.094,0,0.172,0.032,0.234,0.093c0.062,0.062,0.094,0.144,0.094,0.242v2.456
			c0,0.061,0.018,0.068,0.056,0.018c0.163-0.254,0.397-0.453,0.704-0.595C1.732,36.97,2.044,36.9,2.364,36.9
			c0.326,0,0.633,0.065,0.92,0.195c0.288,0.129,0.538,0.309,0.751,0.535c0.213,0.226,0.382,0.492,0.507,0.797
			s0.187,0.627,0.187,0.968c0,0.341-0.062,0.662-0.187,0.964s-0.293,0.564-0.506,0.792c-0.213,0.226-0.463,0.404-0.751,0.535
			c-0.288,0.131-0.595,0.195-0.92,0.195c-0.319,0-0.633-0.071-0.939-0.214c-0.307-0.143-0.542-0.341-0.704-0.596
			c-0.038-0.05-0.056-0.044-0.056,0.019l0.012,0.423c0,0.1-0.031,0.179-0.089,0.242c-0.059,0.061-0.136,0.093-0.23,0.093
			c-0.1,0-0.181-0.032-0.244-0.093c-0.062-0.062-0.094-0.143-0.094-0.242l-0.012-6.278c0-0.099,0.032-0.179,0.094-0.242
			C0.165,34.929,0.244,34.9,0.337,34.9z M2.365,41.227c0.231,0,0.45-0.048,0.657-0.145c0.207-0.096,0.388-0.226,0.545-0.391
			s0.28-0.359,0.371-0.583c0.091-0.224,0.136-0.462,0.136-0.717c0-0.261-0.046-0.502-0.136-0.725
			c-0.091-0.224-0.215-0.417-0.371-0.583c-0.156-0.166-0.338-0.294-0.545-0.391c-0.207-0.097-0.426-0.145-0.657-0.145
			c-0.231,0-0.45,0.048-0.657,0.145c-0.207,0.096-0.387,0.226-0.54,0.391s-0.275,0.358-0.366,0.583
			c-0.091,0.223-0.135,0.465-0.135,0.725c0,0.255,0.045,0.495,0.135,0.717c0.091,0.222,0.213,0.417,0.366,0.583
			c0.154,0.166,0.333,0.294,0.54,0.391C1.914,41.179,2.133,41.227,2.365,41.227z"/>
		<path fill="#FEED00" d="M10.555,39.297c0,0.092-0.031,0.17-0.093,0.236c-0.062,0.065-0.143,0.096-0.243,0.096h-3.75
			c-0.037,0-0.05,0.016-0.037,0.047c0.031,0.217,0.099,0.418,0.206,0.607c0.105,0.188,0.238,0.35,0.397,0.486
			c0.159,0.136,0.342,0.242,0.551,0.319c0.209,0.078,0.431,0.115,0.668,0.115c0.33,0,0.597-0.048,0.803-0.144
			c0.206-0.095,0.38-0.198,0.522-0.31c0.075-0.061,0.149-0.089,0.224-0.082c0.075,0.006,0.143,0.033,0.206,0.082
			c0.05,0.045,0.081,0.107,0.093,0.189c0.012,0.083-0.006,0.157-0.056,0.218c-0.149,0.172-0.377,0.331-0.681,0.477
			c-0.306,0.144-0.676,0.216-1.112,0.216c-0.354,0-0.684-0.065-0.989-0.193c-0.305-0.129-0.569-0.307-0.793-0.532
			c-0.224-0.226-0.4-0.488-0.527-0.787c-0.128-0.299-0.191-0.62-0.191-0.958c0-0.338,0.062-0.659,0.186-0.963
			c0.125-0.303,0.296-0.566,0.513-0.792c0.218-0.226,0.473-0.402,0.765-0.532c0.293-0.13,0.606-0.193,0.943-0.193
			c0.324,0,0.632,0.058,0.923,0.175c0.293,0.116,0.548,0.278,0.765,0.481c0.218,0.203,0.39,0.442,0.518,0.717
			c0.128,0.275,0.191,0.566,0.191,0.875L10.555,39.297L10.555,39.297z M9.818,38.981c0.037,0,0.053-0.018,0.047-0.056
			c-0.05-0.197-0.13-0.381-0.238-0.55c-0.108-0.17-0.238-0.316-0.388-0.439s-0.316-0.219-0.499-0.287
			c-0.183-0.067-0.379-0.101-0.584-0.101c-0.206,0-0.4,0.034-0.584,0.101c-0.183,0.068-0.349,0.164-0.499,0.287
			s-0.278,0.27-0.388,0.439c-0.11,0.17-0.188,0.352-0.238,0.55c-0.012,0.037,0.003,0.056,0.047,0.056H9.818z"/>
	</g>
	<g>
		<path fill="#FEED00" d="M49.167,35.669c0,0.1-0.031,0.181-0.095,0.244c-0.063,0.063-0.142,0.095-0.236,0.095
			c-0.094,0-0.174-0.032-0.236-0.095c-0.064-0.062-0.095-0.144-0.095-0.244v-0.432c0-0.1,0.031-0.181,0.095-0.245
			c0.063-0.062,0.142-0.094,0.236-0.094c0.094,0,0.174,0.032,0.236,0.094c0.064,0.063,0.095,0.145,0.095,0.245V35.669z
			 M49.167,41.509c0,0.101-0.031,0.181-0.095,0.245c-0.063,0.062-0.142,0.094-0.236,0.094c-0.094,0-0.174-0.032-0.236-0.094
			c-0.064-0.063-0.095-0.144-0.095-0.245v-4.158c0-0.101,0.031-0.182,0.095-0.245c0.063-0.062,0.142-0.094,0.236-0.094
			c0.094,0,0.174,0.032,0.236,0.094c0.064,0.062,0.095,0.144,0.095,0.245V41.509z"/>
		<path fill="#FEED00" d="M51.321,37.609c0,0.026,0.004,0.039,0.014,0.042c0.009,0.004,0.02-0.004,0.033-0.023
			c0.044-0.067,0.111-0.144,0.202-0.228c0.091-0.084,0.199-0.164,0.324-0.238c0.125-0.074,0.265-0.137,0.418-0.187
			c0.153-0.05,0.318-0.073,0.494-0.073c0.269,0,0.514,0.051,0.734,0.154c0.219,0.102,0.405,0.241,0.559,0.414
			c0.154,0.173,0.271,0.38,0.353,0.615c0.081,0.238,0.121,0.488,0.121,0.755v2.618c0,0.1-0.031,0.18-0.094,0.243
			c-0.062,0.061-0.144,0.093-0.244,0.093c-0.095,0-0.17-0.032-0.231-0.093c-0.06-0.062-0.089-0.143-0.089-0.243v-2.618
			c0-0.181-0.031-0.348-0.09-0.504c-0.059-0.156-0.141-0.292-0.245-0.41c-0.103-0.117-0.231-0.209-0.381-0.275
			c-0.15-0.065-0.313-0.097-0.489-0.097c-0.182,0-0.356,0.033-0.522,0.097c-0.165,0.065-0.313,0.158-0.442,0.275
			c-0.129,0.117-0.232,0.255-0.31,0.41c-0.079,0.156-0.117,0.323-0.117,0.504v2.618c0,0.1-0.032,0.18-0.094,0.243
			c-0.063,0.061-0.145,0.093-0.245,0.093c-0.094,0-0.171-0.032-0.231-0.093c-0.059-0.062-0.089-0.143-0.089-0.243v-4.128
			c0-0.1,0.032-0.181,0.094-0.243c0.062-0.061,0.144-0.093,0.244-0.093c0.094,0,0.171,0.032,0.231,0.093
			c0.06,0.061,0.09,0.143,0.09,0.243C51.321,37.329,51.321,37.609,51.321,37.609z"/>
		<path fill="#FEED00" d="M56.953,37.76c-0.032,0-0.046,0.015-0.046,0.046v2.79c0,0.073,0.004,0.145,0.013,0.214
			c0.009,0.07,0.028,0.132,0.055,0.183c0.028,0.052,0.065,0.092,0.111,0.123c0.046,0.031,0.109,0.04,0.189,0.028
			c0.123-0.012,0.218,0.009,0.286,0.064c0.067,0.056,0.104,0.138,0.11,0.247c0.006,0.128-0.044,0.222-0.152,0.284
			c-0.108,0.062-0.238,0.093-0.392,0.093c-0.11,0-0.218-0.015-0.322-0.046c-0.103-0.031-0.197-0.08-0.277-0.151
			c-0.08-0.07-0.145-0.165-0.194-0.284c-0.05-0.119-0.074-0.27-0.074-0.453v-3.093c0-0.031-0.015-0.046-0.046-0.046h-0.563
			c-0.098,0-0.178-0.031-0.24-0.091c-0.061-0.061-0.092-0.138-0.092-0.229c0-0.091,0.031-0.168,0.092-0.228
			c0.062-0.06,0.142-0.091,0.24-0.091h0.563c0.031,0,0.046-0.016,0.046-0.046v-0.869c0-0.103,0.032-0.182,0.097-0.237
			c0.065-0.056,0.139-0.082,0.226-0.082c0.085,0,0.161,0.027,0.225,0.082c0.065,0.055,0.098,0.134,0.098,0.237v0.867
			c0,0.03,0.014,0.046,0.046,0.046h0.544c0.099,0,0.179,0.031,0.24,0.091c0.061,0.06,0.092,0.137,0.092,0.228
			c0,0.091-0.031,0.168-0.092,0.229c-0.061,0.06-0.141,0.091-0.24,0.091C57.498,37.76,56.953,37.76,56.953,37.76z"/>
		<path fill="#FEED00" d="M63.221,39.312c0,0.093-0.032,0.171-0.094,0.237c-0.063,0.065-0.145,0.097-0.244,0.097H59.11
			c-0.039,0-0.051,0.016-0.039,0.047c0.032,0.218,0.1,0.421,0.207,0.61c0.107,0.189,0.239,0.352,0.399,0.489
			c0.161,0.137,0.343,0.243,0.553,0.321c0.21,0.078,0.434,0.116,0.673,0.116c0.331,0,0.601-0.048,0.807-0.145
			c0.207-0.096,0.382-0.2,0.526-0.312c0.075-0.061,0.151-0.09,0.226-0.083c0.074,0.006,0.143,0.034,0.206,0.083
			c0.051,0.045,0.081,0.108,0.094,0.191c0.012,0.084-0.006,0.158-0.056,0.219c-0.15,0.173-0.378,0.333-0.685,0.48
			c-0.307,0.146-0.678,0.218-1.116,0.218c-0.356,0-0.689-0.065-0.996-0.195c-0.306-0.13-0.572-0.309-0.797-0.535
			c-0.226-0.227-0.403-0.491-0.532-0.792c-0.128-0.301-0.191-0.623-0.191-0.964c0-0.34,0.062-0.663,0.187-0.968
			c0.125-0.305,0.297-0.569,0.516-0.797c0.219-0.226,0.476-0.404,0.769-0.535c0.295-0.13,0.611-0.195,0.949-0.195
			c0.326,0,0.635,0.058,0.929,0.176c0.293,0.117,0.55,0.28,0.77,0.484c0.218,0.205,0.392,0.445,0.52,0.721
			c0.128,0.277,0.193,0.569,0.193,0.88C63.221,39.161,63.221,39.312,63.221,39.312z M62.48,38.993c0.038,0,0.053-0.018,0.047-0.056
			c-0.051-0.199-0.13-0.383-0.239-0.553c-0.109-0.17-0.239-0.318-0.39-0.442c-0.15-0.124-0.318-0.22-0.501-0.288
			c-0.185-0.067-0.381-0.102-0.588-0.102c-0.208,0-0.403,0.035-0.588,0.102c-0.185,0.068-0.352,0.165-0.503,0.288
			c-0.151,0.124-0.279,0.272-0.389,0.442c-0.11,0.17-0.189,0.355-0.239,0.553c-0.013,0.038,0.003,0.056,0.047,0.056H62.48z"/>
		<path fill="#FEED00" d="M65.051,37.793c0,0.044,0.009,0.071,0.028,0.084c0.019,0.013,0.047-0.006,0.086-0.056
			c0.088-0.105,0.183-0.211,0.29-0.316c0.107-0.106,0.222-0.201,0.347-0.284c0.125-0.084,0.26-0.155,0.403-0.21
			c0.145-0.056,0.297-0.093,0.46-0.111c0.118-0.013,0.219,0.004,0.3,0.051c0.08,0.047,0.122,0.129,0.122,0.248
			c0,0.099-0.032,0.173-0.095,0.223c-0.062,0.05-0.147,0.09-0.253,0.121c-0.37,0.099-0.665,0.212-0.888,0.339
			c-0.223,0.127-0.393,0.258-0.512,0.391c-0.118,0.133-0.197,0.269-0.234,0.404c-0.037,0.137-0.056,0.264-0.056,0.382v2.392
			c0,0.1-0.032,0.179-0.095,0.242c-0.061,0.061-0.141,0.093-0.234,0.093c-0.094,0-0.171-0.032-0.234-0.093
			c-0.063-0.062-0.094-0.143-0.094-0.242v-4.123c0-0.1,0.031-0.18,0.094-0.242c0.063-0.06,0.141-0.093,0.234-0.093
			c0.094,0,0.173,0.032,0.234,0.093c0.063,0.061,0.095,0.14,0.095,0.232L65.051,37.793L65.051,37.793z"/>
		<path fill="#FEED00" d="M68.576,37.632c0,0.026,0.005,0.039,0.013,0.042c0.01,0.004,0.021-0.004,0.034-0.024
			c0.044-0.068,0.112-0.145,0.203-0.229s0.2-0.165,0.327-0.239c0.126-0.075,0.266-0.138,0.421-0.188
			c0.155-0.05,0.321-0.074,0.497-0.074c0.271,0,0.517,0.051,0.739,0.155c0.221,0.103,0.409,0.243,0.563,0.417
			c0.154,0.174,0.273,0.382,0.356,0.62c0.082,0.239,0.123,0.491,0.123,0.761v2.637c0,0.101-0.033,0.181-0.095,0.245
			c-0.064,0.062-0.146,0.094-0.247,0.094c-0.095,0-0.173-0.032-0.232-0.094c-0.06-0.063-0.09-0.144-0.09-0.245v-2.637
			c0-0.182-0.029-0.351-0.088-0.508c-0.062-0.157-0.144-0.294-0.247-0.413c-0.105-0.118-0.232-0.211-0.384-0.278
			c-0.152-0.066-0.315-0.098-0.492-0.098c-0.184,0-0.359,0.033-0.525,0.098c-0.169,0.066-0.317,0.159-0.446,0.278
			c-0.129,0.119-0.233,0.257-0.312,0.413c-0.079,0.157-0.118,0.326-0.118,0.508v2.637c0,0.101-0.032,0.181-0.096,0.245
			c-0.062,0.062-0.144,0.094-0.246,0.094c-0.095,0-0.172-0.032-0.231-0.094c-0.061-0.063-0.09-0.144-0.09-0.245v-4.158
			c0-0.101,0.031-0.182,0.095-0.245c0.064-0.061,0.145-0.094,0.247-0.094c0.095,0,0.172,0.032,0.232,0.094
			c0.06,0.062,0.089,0.144,0.089,0.245L68.576,37.632z"/>
		<path fill="#FEED00" d="M77.731,39.312c0,0.093-0.033,0.171-0.094,0.237c-0.063,0.065-0.145,0.097-0.244,0.097h-3.774
			c-0.037,0-0.049,0.016-0.037,0.047c0.031,0.218,0.1,0.421,0.206,0.61c0.108,0.189,0.24,0.352,0.399,0.489
			c0.161,0.137,0.344,0.243,0.554,0.321c0.21,0.077,0.434,0.116,0.673,0.116c0.33,0,0.599-0.048,0.807-0.145
			c0.206-0.096,0.381-0.2,0.526-0.312c0.075-0.061,0.151-0.09,0.224-0.083c0.075,0.006,0.145,0.034,0.208,0.083
			c0.049,0.045,0.081,0.108,0.094,0.191c0.012,0.084-0.006,0.158-0.057,0.219c-0.149,0.173-0.379,0.333-0.684,0.48
			c-0.308,0.146-0.678,0.218-1.116,0.218c-0.359,0-0.689-0.065-0.996-0.195c-0.306-0.13-0.572-0.309-0.799-0.535
			c-0.224-0.227-0.401-0.491-0.53-0.792c-0.128-0.301-0.191-0.623-0.191-0.964c0-0.34,0.061-0.663,0.187-0.968
			c0.124-0.304,0.297-0.569,0.515-0.797c0.22-0.226,0.477-0.404,0.77-0.535c0.293-0.13,0.611-0.195,0.947-0.195
			c0.327,0,0.636,0.058,0.932,0.176c0.293,0.117,0.55,0.28,0.77,0.484c0.218,0.205,0.391,0.445,0.519,0.721
			c0.128,0.277,0.194,0.569,0.194,0.88L77.731,39.312L77.731,39.312z M76.99,38.993c0.037,0,0.053-0.018,0.047-0.056
			c-0.051-0.199-0.13-0.383-0.24-0.553c-0.11-0.17-0.239-0.318-0.389-0.442c-0.15-0.124-0.318-0.22-0.503-0.288
			c-0.183-0.067-0.379-0.102-0.588-0.102c-0.206,0-0.401,0.035-0.588,0.102c-0.183,0.068-0.35,0.165-0.501,0.288
			c-0.151,0.124-0.282,0.272-0.389,0.442c-0.11,0.17-0.189,0.355-0.24,0.553c-0.012,0.038,0.004,0.056,0.047,0.056H76.99z"/>
		<path fill="#FEED00" d="M79.884,37.731c-0.03,0-0.046,0.015-0.046,0.046v2.796c0,0.073,0.004,0.146,0.014,0.215
			c0.008,0.07,0.028,0.132,0.054,0.184c0.028,0.052,0.066,0.092,0.112,0.123c0.046,0.031,0.108,0.04,0.189,0.028
			c0.124-0.012,0.219,0.009,0.287,0.064c0.068,0.056,0.104,0.139,0.11,0.248c0.006,0.128-0.044,0.223-0.153,0.284
			c-0.106,0.06-0.239,0.091-0.393,0.091c-0.11,0-0.219-0.015-0.323-0.046c-0.103-0.031-0.197-0.08-0.278-0.152
			c-0.081-0.07-0.145-0.166-0.195-0.284c-0.048-0.119-0.074-0.271-0.074-0.454v-3.1c0-0.031-0.014-0.046-0.046-0.046h-0.564
			c-0.098,0-0.179-0.031-0.241-0.091c-0.06-0.061-0.092-0.139-0.092-0.23c0-0.091,0.032-0.169,0.092-0.229
			c0.062-0.06,0.143-0.091,0.241-0.091h0.564c0.032,0,0.046-0.016,0.046-0.046v-0.871c0-0.103,0.032-0.183,0.098-0.238
			c0.065-0.056,0.141-0.082,0.227-0.082c0.086,0,0.161,0.027,0.227,0.082c0.065,0.055,0.096,0.134,0.096,0.238v0.871
			c0,0.03,0.016,0.046,0.046,0.046h0.546c0.098,0,0.179,0.031,0.241,0.091c0.06,0.06,0.092,0.138,0.092,0.229
			c0,0.091-0.032,0.169-0.092,0.23c-0.062,0.06-0.143,0.091-0.241,0.091C80.432,37.731,79.884,37.731,79.884,37.731z"/>
		<path fill="#FEED00" d="M85.991,39.393c0,0.348-0.063,0.672-0.187,0.973c-0.126,0.301-0.295,0.562-0.507,0.785
			c-0.214,0.223-0.462,0.4-0.752,0.531c-0.287,0.13-0.595,0.195-0.919,0.195c-0.327,0-0.634-0.065-0.921-0.195
			c-0.288-0.129-0.538-0.308-0.752-0.531c-0.212-0.223-0.379-0.485-0.501-0.785c-0.122-0.301-0.183-0.625-0.183-0.973
			c0-0.34,0.061-0.663,0.183-0.968c0.122-0.304,0.289-0.569,0.501-0.797c0.214-0.226,0.464-0.404,0.752-0.535
			c0.287-0.13,0.595-0.195,0.921-0.195c0.324,0,0.632,0.065,0.919,0.195c0.289,0.13,0.538,0.309,0.752,0.535
			c0.212,0.226,0.381,0.492,0.507,0.797C85.928,38.73,85.991,39.054,85.991,39.393z M85.333,39.393c0-0.254-0.045-0.493-0.134-0.716
			c-0.092-0.223-0.216-0.419-0.371-0.587c-0.157-0.168-0.338-0.298-0.546-0.395c-0.206-0.097-0.426-0.145-0.656-0.145
			c-0.232,0-0.452,0.048-0.658,0.145c-0.206,0.096-0.387,0.227-0.54,0.395c-0.153,0.168-0.275,0.364-0.367,0.587
			c-0.09,0.223-0.134,0.462-0.134,0.716c0,0.255,0.045,0.495,0.134,0.717c0.092,0.223,0.214,0.417,0.367,0.583
			c0.154,0.166,0.334,0.294,0.54,0.391c0.206,0.097,0.426,0.145,0.658,0.145c0.23,0,0.45-0.048,0.656-0.145
			c0.208-0.096,0.389-0.226,0.546-0.391c0.155-0.165,0.279-0.359,0.371-0.583C85.288,39.887,85.333,39.648,85.333,39.393z"/>
	</g>
	<g>
		<path fill="#FEED00" d="M15.718,37.576c0-0.166,0.054-0.302,0.164-0.414c0.108-0.11,0.247-0.167,0.413-0.167
			c0.167,0,0.304,0.056,0.413,0.167c0.108,0.112,0.164,0.249,0.164,0.414v3.856c0,0.413-0.074,0.769-0.221,1.067
			c-0.147,0.297-0.338,0.543-0.571,0.738c-0.233,0.193-0.498,0.336-0.793,0.428s-0.589,0.138-0.884,0.138
			c-0.205,0-0.423-0.016-0.653-0.048c-0.23-0.032-0.419-0.079-0.567-0.143c-0.192-0.082-0.324-0.183-0.398-0.304
			c-0.074-0.121-0.089-0.254-0.044-0.399c0.057-0.183,0.15-0.31,0.278-0.376c0.128-0.067,0.263-0.074,0.403-0.024
			c0.102,0.031,0.235,0.065,0.399,0.1c0.164,0.034,0.356,0.052,0.58,0.052c0.384,0,0.7-0.093,0.946-0.281
			c0.247-0.187,0.37-0.451,0.37-0.794v-0.249c0-0.063-0.019-0.069-0.057-0.019c-0.039,0.076-0.099,0.155-0.182,0.233
			c-0.083,0.079-0.182,0.152-0.298,0.219c-0.116,0.067-0.247,0.12-0.394,0.162s-0.307,0.062-0.48,0.062
			c-0.358,0-0.689-0.062-0.989-0.186c-0.301-0.123-0.561-0.297-0.778-0.522c-0.218-0.225-0.388-0.496-0.508-0.81
			c-0.122-0.314-0.182-0.658-0.182-1.034c0-0.375,0.06-0.717,0.182-1.028c0.122-0.311,0.292-0.58,0.508-0.805
			c0.218-0.225,0.477-0.399,0.778-0.523c0.301-0.123,0.63-0.185,0.989-0.185c0.173,0,0.334,0.021,0.486,0.062
			c0.15,0.042,0.284,0.093,0.403,0.157c0.119,0.063,0.22,0.137,0.303,0.219c0.083,0.081,0.141,0.162,0.173,0.238
			c0.013,0.026,0.024,0.036,0.034,0.033C15.712,37.606,15.718,37.595,15.718,37.576z M14.403,40.85c0.218,0,0.416-0.036,0.595-0.11
			c0.179-0.072,0.333-0.171,0.461-0.294c0.128-0.124,0.227-0.272,0.298-0.443c0.071-0.171,0.105-0.359,0.105-0.562
			c0-0.196-0.035-0.38-0.105-0.551c-0.07-0.171-0.17-0.319-0.298-0.443c-0.128-0.124-0.281-0.222-0.461-0.294
			c-0.179-0.073-0.378-0.11-0.595-0.11c-0.218,0-0.414,0.036-0.59,0.11c-0.176,0.072-0.328,0.17-0.456,0.294
			c-0.128,0.124-0.227,0.272-0.298,0.443c-0.071,0.171-0.105,0.355-0.105,0.551c0,0.203,0.035,0.391,0.105,0.562
			c0.07,0.171,0.17,0.319,0.298,0.443c0.128,0.123,0.28,0.222,0.456,0.294C13.988,40.815,14.185,40.85,14.403,40.85z"/>
		<path fill="#FEED00" d="M22.726,36.962c0.164,0,0.299,0.055,0.406,0.164c0.107,0.11,0.161,0.245,0.161,0.407v3.774
			c0,0.163-0.053,0.297-0.161,0.407c-0.107,0.109-0.243,0.164-0.406,0.164c-0.164,0-0.299-0.055-0.406-0.164
			c-0.107-0.11-0.161-0.339-0.161-0.502c0-0.019-0.005-0.032-0.014-0.038c-0.009-0.006-0.02,0-0.034,0.018
			c-0.038,0.075-0.097,0.154-0.179,0.235c-0.082,0.081-0.18,0.155-0.297,0.219c-0.117,0.066-0.248,0.121-0.393,0.165
			s-0.302,0.066-0.472,0.066c-0.353,0-0.677-0.06-0.973-0.182c-0.296-0.121-0.551-0.292-0.766-0.514
			c-0.214-0.221-0.381-0.486-0.5-0.791c-0.12-0.305-0.179-0.643-0.179-1.012c0-0.369,0.059-0.706,0.179-1.016
			c0.12-0.31,0.287-0.575,0.5-0.797c0.214-0.221,0.469-0.394,0.766-0.515c0.296-0.121,0.62-0.181,0.973-0.181
			c0.17,0,0.328,0.023,0.472,0.066c0.145,0.044,0.275,0.098,0.393,0.164c0.117,0.066,0.215,0.139,0.297,0.22
			c0.082,0.081,0.141,0.16,0.179,0.234c0.012,0.019,0.024,0.026,0.034,0.019c0.009-0.006,0.014-0.019,0.014-0.038
			c0-0.163,0.053-0.297,0.161-0.407C22.427,37.018,22.563,36.962,22.726,36.962z M20.865,40.755c0.214,0,0.409-0.036,0.585-0.109
			c0.176-0.071,0.328-0.169,0.453-0.289c0.126-0.122,0.223-0.268,0.293-0.436s0.104-0.35,0.104-0.543
			c0-0.193-0.035-0.376-0.104-0.547c-0.069-0.171-0.167-0.318-0.293-0.44c-0.126-0.122-0.277-0.218-0.453-0.289
			c-0.176-0.072-0.372-0.109-0.585-0.109c-0.214,0-0.407,0.036-0.58,0.109c-0.173,0.071-0.323,0.168-0.449,0.289
			c-0.126,0.122-0.223,0.269-0.293,0.44c-0.07,0.171-0.104,0.355-0.104,0.547c0,0.195,0.035,0.375,0.104,0.543
			c0.07,0.169,0.167,0.314,0.293,0.436c0.126,0.121,0.276,0.218,0.449,0.289C20.456,40.72,20.651,40.755,20.865,40.755z"/>
		<path fill="#FEED00" d="M26.359,41.311c0,0.162-0.054,0.295-0.164,0.404c-0.11,0.108-0.246,0.163-0.408,0.163
			s-0.296-0.055-0.398-0.163c-0.103-0.109-0.155-0.243-0.155-0.404v-5.845c0-0.161,0.054-0.295,0.164-0.404
			c0.11-0.108,0.245-0.163,0.408-0.163c0.163,0,0.296,0.055,0.398,0.163c0.103,0.109,0.155,0.244,0.155,0.404V41.311z"/>
		<path fill="#FEED00" d="M31.965,36.901c0.169,0,0.309,0.056,0.419,0.169c0.11,0.113,0.166,0.253,0.166,0.42v3.916
			c0,0.419-0.075,0.781-0.224,1.083c-0.149,0.302-0.344,0.552-0.581,0.748c-0.237,0.196-0.506,0.341-0.805,0.435
			c-0.298,0.093-0.597,0.14-0.896,0.14c-0.208,0-0.43-0.016-0.663-0.049c-0.234-0.033-0.425-0.08-0.576-0.145
			c-0.195-0.084-0.33-0.186-0.405-0.309c-0.075-0.123-0.09-0.258-0.044-0.405c0.058-0.186,0.152-0.314,0.282-0.382
			c0.13-0.068,0.267-0.075,0.409-0.024c0.104,0.032,0.238,0.066,0.405,0.102c0.166,0.035,0.362,0.053,0.589,0.053
			c0.331,0,0.615-0.07,0.849-0.212c0.234-0.143,0.387-0.342,0.458-0.6c0.013-0.045-0.006-0.06-0.058-0.049
			c-0.143,0.057-0.294,0.103-0.453,0.135c-0.16,0.033-0.333,0.049-0.522,0.049c-0.364,0-0.685-0.057-0.961-0.174
			c-0.276-0.115-0.507-0.278-0.692-0.488c-0.185-0.21-0.327-0.46-0.424-0.754c-0.097-0.292-0.146-0.62-0.146-0.98v-2.089
			c0-0.168,0.055-0.307,0.166-0.42c0.11-0.112,0.25-0.169,0.419-0.169c0.17,0,0.309,0.056,0.419,0.169
			c0.11,0.113,0.166,0.253,0.166,0.42v2.088c0,0.399,0.088,0.705,0.263,0.918c0.176,0.213,0.439,0.319,0.79,0.319
			c0.358,0,0.624-0.106,0.8-0.319c0.176-0.213,0.263-0.518,0.263-0.918v-2.088c0-0.168,0.055-0.307,0.166-0.42
			C31.657,36.958,31.797,36.901,31.965,36.901z"/>
		<path fill="#FEED00" d="M34.919,34.9c0.163,0,0.297,0.055,0.403,0.163c0.107,0.109,0.16,0.244,0.16,0.404v2.076
			c0,0.024,0.005,0.039,0.014,0.042c0.009,0.003,0.02-0.005,0.034-0.023c0.037-0.074,0.096-0.152,0.177-0.228
			c0.081-0.077,0.18-0.149,0.296-0.214c0.115-0.065,0.245-0.117,0.389-0.158s0.3-0.06,0.47-0.06c0.35,0,0.673,0.06,0.967,0.18
			c0.294,0.121,0.548,0.291,0.761,0.511c0.212,0.22,0.378,0.484,0.497,0.792c0.119,0.307,0.178,0.643,0.178,1.01
			c0,0.367-0.059,0.702-0.178,1.005s-0.285,0.566-0.497,0.786c-0.213,0.22-0.466,0.391-0.761,0.511
			c-0.294,0.121-0.616,0.181-0.967,0.181c-0.169,0-0.327-0.02-0.47-0.06c-0.143-0.041-0.274-0.093-0.389-0.158
			c-0.116-0.065-0.215-0.139-0.296-0.219c-0.081-0.08-0.141-0.159-0.177-0.232c-0.013-0.019-0.024-0.026-0.034-0.023
			c-0.009,0.003-0.014,0.013-0.014,0.033c0,0.162-0.053,0.295-0.16,0.404c-0.106,0.108-0.24,0.163-0.403,0.163
			c-0.163,0-0.297-0.055-0.403-0.163c-0.106-0.109-0.16-0.243-0.16-0.404v-5.752c0-0.161,0.053-0.295,0.16-0.404
			C34.622,34.954,34.756,34.9,34.919,34.9z M36.768,40.762c0.213,0,0.405-0.036,0.578-0.108c0.171-0.07,0.32-0.168,0.445-0.287
			c0.125-0.121,0.222-0.266,0.291-0.433s0.103-0.347,0.103-0.54c0-0.193-0.034-0.374-0.103-0.544
			c-0.069-0.171-0.166-0.316-0.291-0.437s-0.274-0.217-0.445-0.287c-0.172-0.071-0.365-0.108-0.578-0.108s-0.407,0.036-0.583,0.108
			c-0.175,0.07-0.326,0.167-0.45,0.287s-0.222,0.267-0.291,0.437c-0.069,0.17-0.103,0.352-0.103,0.544
			c0,0.194,0.034,0.373,0.103,0.54c0.07,0.168,0.166,0.312,0.291,0.433c0.125,0.12,0.275,0.217,0.45,0.287
			C36.36,40.727,36.555,40.762,36.768,40.762z"/>
		<path fill="#FEED00" d="M45.556,39.12c0.012,0.177-0.039,0.321-0.158,0.431c-0.118,0.111-0.26,0.166-0.426,0.166h-3.121
			c-0.051,0-0.07,0.026-0.057,0.076c0.038,0.121,0.102,0.242,0.191,0.366c0.089,0.125,0.196,0.237,0.321,0.342
			c0.125,0.104,0.265,0.189,0.422,0.256c0.156,0.067,0.32,0.1,0.492,0.1c0.178,0,0.332-0.015,0.46-0.043
			c0.127-0.029,0.235-0.061,0.324-0.1c0.089-0.038,0.164-0.077,0.226-0.118c0.06-0.042,0.118-0.077,0.177-0.11
			c0.139-0.07,0.274-0.097,0.401-0.08c0.129,0.016,0.237,0.083,0.326,0.204c0.083,0.113,0.108,0.237,0.077,0.37
			c-0.033,0.133-0.118,0.254-0.26,0.361c-0.089,0.07-0.193,0.136-0.316,0.2c-0.12,0.062-0.256,0.118-0.405,0.166
			c-0.152,0.048-0.307,0.085-0.47,0.114c-0.164,0.028-0.324,0.043-0.484,0.043c-0.396,0-0.758-0.062-1.087-0.189
			c-0.329-0.127-0.613-0.298-0.853-0.516c-0.239-0.218-0.426-0.478-0.56-0.778c-0.134-0.3-0.2-0.628-0.2-0.982
			c0-0.41,0.07-0.778,0.21-1.1c0.141-0.322,0.327-0.596,0.561-0.821c0.233-0.224,0.501-0.396,0.804-0.512
			c0.302-0.117,0.614-0.175,0.933-0.175c0.211,0,0.449,0.037,0.719,0.113c0.268,0.076,0.526,0.204,0.776,0.384
			c0.249,0.181,0.464,0.42,0.646,0.717C45.406,38.299,45.517,38.672,45.556,39.12z M44.265,38.779c0.044,0,0.068-0.023,0.068-0.067
			c-0.012-0.113-0.056-0.221-0.129-0.322c-0.075-0.101-0.168-0.189-0.283-0.266c-0.114-0.076-0.245-0.136-0.388-0.18
			c-0.143-0.045-0.292-0.067-0.445-0.067c-0.153,0-0.303,0.023-0.45,0.067c-0.146,0.045-0.277,0.104-0.393,0.18
			c-0.114,0.076-0.209,0.165-0.283,0.266c-0.073,0.101-0.116,0.209-0.129,0.322c0,0.046,0.023,0.067,0.068,0.067H44.265z
			 M42.532,35.414c0-0.319,0.159-0.479,0.479-0.479h0.248c0.318,0,0.479,0.16,0.479,0.479v0.182c0,0.319-0.16,0.478-0.479,0.478
			h-0.248c-0.32,0-0.479-0.159-0.479-0.478V35.414z"/>
	</g>
</g>
</svg>
