<?xml version="1.0" encoding="utf-8"?>
<!-- Generator: Adobe Illustrator 17.0.0, SVG Export Plug-In . SVG Version: 6.00 Build 0)  -->
<!DOCTYPE svg PUBLIC "-//W3C//DTD SVG 1.1//EN" "http://www.w3.org/Graphics/SVG/1.1/DTD/svg11.dtd">
<svg version="1.1" id="Layer_1" xmlns="http://www.w3.org/2000/svg" xmlns:xlink="http://www.w3.org/1999/xlink" x="0px" y="0px"
	 width="78px" height="78px" viewBox="0 0 78 78" enable-background="new 0 0 78 78" xml:space="preserve">
<g>
	<g>
		<circle fill="#FFE13E" cx="39" cy="39" r="39"/>
	</g>
	<path fill="#918435" d="M46.476,34.464v0.938h-1.151V28.93c0-3.27-2.837-5.93-6.325-5.93c-3.487,0-6.325,2.66-6.325,5.93v6.472
		h-1.151v-0.938H29.5v7.88c0,3.847,3.566,8.12,8.488,8.644v3.023h-5.06V55h12.144v-0.99h-5.06v-3.023
		c4.922-0.524,8.488-4.797,8.488-8.643v-7.88H46.476z M33.687,34.34h4.301v-0.99h-4.301V32.32h4.301v-0.99h-4.301v-2.4
		c0-2.724,2.383-4.94,5.313-4.94s5.313,2.216,5.313,4.94v2.4h-4.301v0.99h4.301v1.031h-4.301v0.99h4.301v1.062h-4.301v2.041h4.301
		v1.103h-3.289v0.99h3.289v2.277c0,2.724-2.384,4.94-5.313,4.94s-5.313-2.216-5.313-4.94v-2.277h3.289v-0.99h-3.289v-1.103h4.301
		v-2.041h-4.301V34.34z M39,49.062c-4.21,0-7.475-3.612-7.475-6.718v-4.9h1.151v4.37c0,3.27,2.837,5.929,6.325,5.929
		c3.488,0,6.325-2.66,6.325-5.929v-4.37h1.151v4.9C46.476,45.45,43.21,49.062,39,49.062z"/>
</g>
</svg>
